<?xml version="1.0" encoding="UTF-8"?> <svg xmlns="http://www.w3.org/2000/svg" height="512px" viewBox="-104 0 480 480" width="512px"> <g> <path d="m272 424v-139.335938c-.042969-25.238281-16.925781-47.347656-41.265625-54.03125l-46.734375-12.746093v-35.359375c11.011719-3.878906 17.621094-15.132813 15.644531-26.640625-1.980469-11.507813-11.96875-19.910157-23.644531-19.886719h-4.992188l44.304688-120.449219-15.015625-5.527343-46.335937 125.976562h-9.960938v-136h-16v136h-9.960938l-46.335937-125.976562-15.015625 5.527343 44.304688 120.449219h-4.992188c-11.675781-.023438-21.664062 8.378906-23.644531 19.886719-1.976563 11.507812 4.632812 22.761719 15.644531 26.640625v35.359375l-46.734375 12.746093c-24.339844 6.683594-41.2226562 28.792969-41.265625 54.03125v139.335938c.0351562 30.914062 25.085938 55.964844 56 56h160c30.914062-.035156 55.964844-25.085938 56-56zm-45.480469-177.929688c17.386719 4.773438 29.449219 20.5625 29.480469 38.59375v67.335938h-58.503906l-44.144532-120h21.601563zm-61.398437-94.070312h10.878906c4.417969 0 8 3.582031 8 8s-3.582031 8-8 8h-16.761719zm2.878906 32v32h-20.535156l-2.9375-8 8.800781-24zm-24-32h4.070312l-4.070312 11.070312zm0 100.929688 36.441406 99.070312h-36.441406zm-16-100.929688v11.070312l-4.070312-11.070312zm-9.351562 32 8.800781 24-2.9375 8h-20.511719v-32zm9.351562 68.929688v99.070312h-36.441406zm-32-100.929688h10.878906l5.882813 16h-16.761719c-4.417969 0-8-3.582031-8-8s3.582031-8 8-8zm-80 132.664062c.03125-18.03125 12.09375-33.820312 29.480469-38.59375l51.589843-14.070312h21.601563l-44.167969 120h-58.503906zm0 139.335938v-56h52.625l-11.9375 32.449219 15.015625 5.527343 13.96875-37.976562h42.328125v48h16v-48h42.328125l13.96875 37.976562 15.015625-5.527343-11.9375-32.449219h52.625v56c.003906 2.6875-.265625 5.367188-.800781 8h-238.398438c-.535156-2.632812-.804687-5.3125-.800781-8zm8.207031 24h223.585938c-7.492188 10.035156-19.269531 15.964844-31.792969 16h-160c-12.523438-.035156-24.300781-5.964844-31.792969-16zm0 0" data-original="#000000" class="active-path" data-old_color="#000000" fill="#d69928"></path> <path d="m96 392h16v16h-16zm0 0" data-original="#000000" class="active-path" data-old_color="#000000" fill="#d69928"></path> <path d="m32 408h16v16h-16zm0 0" data-original="#000000" class="active-path" data-old_color="#000000" fill="#d69928"></path> <path d="m224 408h16v16h-16zm0 0" data-original="#000000" class="active-path" data-old_color="#000000" fill="#d69928"></path> <path d="m160 400h16v16h-16zm0 0" data-original="#000000" class="active-path" data-old_color="#000000" fill="#d69928"></path> <path d="m224 288.558594v15.441406h16v-15.441406c.011719-8.035156-4-15.542969-10.6875-20l-16.871094-11.246094-8.882812 13.3125 16.882812 11.246094c2.234375 1.492187 3.570313 4.003906 3.558594 6.6875zm0 0" data-original="#000000" class="active-path" data-old_color="#000000" fill="#d69928"></path> <path d="m224 320h16v16h-16zm0 0" data-original="#000000" class="active-path" data-old_color="#000000" fill="#d69928"></path> </g> </svg> 