<svg xmlns="http://www.w3.org/2000/svg" viewBox="0 0 40.26 40.26"><defs><style>.cls-1{fill:#d79a29;}</style></defs><g id="Layer_2" data-name="Layer 2"><g id="Слой_1" data-name="Слой 1"><path class="cls-1" d="M40.26,0A20.25,20.25,0,0,1,21.88,18.39,20.24,20.24,0,0,1,40.26,0Z"/><path class="cls-1" d="M18.39,18.39A20.25,20.25,0,0,1,0,0,20.25,20.25,0,0,1,18.39,18.39Z"/><path class="cls-1" d="M18.39,21.88A20.25,20.25,0,0,1,0,40.26,20.24,20.24,0,0,1,18.39,21.88Z"/><path class="cls-1" d="M21.88,21.88A20.24,20.24,0,0,1,40.26,40.26,20.24,20.24,0,0,1,21.88,21.88Z"/></g></g></svg>