<?xml version="1.0" encoding="UTF-8"?> <svg xmlns="http://www.w3.org/2000/svg" id="Слой_1" data-name="Слой 1" viewBox="0 0 244.71496 244.71514"> <defs> <style>.cls-1{fill:#d69928;}</style> </defs> <path class="cls-1" d="M95.19735,333.48985c-.02435.64472-.07059,1.2838-.07059,1.934a51.27828,51.27828,0,0,0,.50194,7.10171,63.62444,63.62444,0,0,0,48.37324-39.13986,63.41271,63.41271,0,1,0,69.20536-85.963c.10536,1.52454.17508,3.05932.17508,4.61016,0,1.51519-.06866,3.01414-.16944,4.50374a54.44457,54.44457,0,1,1-64.51047,58.15516,54.55627,54.55627,0,0,1,48.78129,44.076c.96559.05436,1.93206.10625,2.91124.10625a51.35205,51.35205,0,0,0,6.15482-.37046,63.62313,63.62313,0,0,0-39.16333-48.50526,63.4129,63.4129,0,1,0-85.95767-69.23977c1.52313-.10519,3.05544-.17473,4.60487-.17473,1.51713,0,3.01767.06884,4.5092.16961a54.445,54.445,0,1,1,58.15,64.54419,54.55572,54.55572,0,0,1,43.962-48.75958c.13078-1.48642.21868-2.98484.21868-4.50515,0-1.554-.07731-3.08985-.21374-4.60945a63.61906,63.61906,0,0,0-48.66039,39.19,63.4142,63.4142,0,1,0-68.97838,86.0055,66.76661,66.76661,0,0,1-.40311-7.19507c0-.66467.03441-1.32069.05418-1.981A54.44587,54.44587,0,1,1,139.299,275.30768,54.55656,54.55656,0,0,1,90.5316,231.31022c-1.4843-.13007-2.98043-.21779-4.49791-.21779-1.55649,0-3.09462.07766-4.61616.21479a63.61872,63.61872,0,0,0,39.1958,48.69357,63.41393,63.41393,0,1,0,85.99015,69.06593c-2.04679.191-4.11228.31592-6.20848.31592-.98889,0-1.9686-.03741-2.9469-.08066a54.4459,54.4459,0,1,1-58.13927-64.60084A54.55616,54.55616,0,0,1,95.19735,333.48985Z" transform="translate(-21.64252 -157.64243)"></path> </svg> 