<svg xmlns="http://www.w3.org/2000/svg" viewBox="0 0 741.65 492.47"><defs><style>.cls-1{fill:#d79a29;}</style></defs><g id="Layer_2" data-name="Layer 2"><g id="Слой_1" data-name="Слой 1"><path class="cls-1" d="M40.26,0A20.25,20.25,0,0,1,21.88,18.39,20.24,20.24,0,0,1,40.26,0Z"/><path class="cls-1" d="M18.39,18.39A20.25,20.25,0,0,1,0,0,20.25,20.25,0,0,1,18.39,18.39Z"/><path class="cls-1" d="M18.39,21.88A20.25,20.25,0,0,1,0,40.26,20.24,20.24,0,0,1,18.39,21.88Z"/><path class="cls-1" d="M21.88,21.88A20.24,20.24,0,0,1,40.26,40.26,20.24,20.24,0,0,1,21.88,21.88Z"/><path class="cls-1" d="M84.09,0A20.25,20.25,0,0,1,65.7,18.39,20.25,20.25,0,0,1,84.09,0Z"/><path class="cls-1" d="M62.21,18.39A20.25,20.25,0,0,1,43.83,0,20.24,20.24,0,0,1,62.21,18.39Z"/><path class="cls-1" d="M62.21,21.88A20.24,20.24,0,0,1,43.83,40.26,20.24,20.24,0,0,1,62.21,21.88Z"/><path class="cls-1" d="M65.7,21.88A20.24,20.24,0,0,1,84.09,40.26,20.25,20.25,0,0,1,65.7,21.88Z"/><path class="cls-1" d="M127.92,0a20.25,20.25,0,0,1-18.39,18.39A20.24,20.24,0,0,1,127.92,0Z"/><path class="cls-1" d="M106,18.39A20.26,20.26,0,0,1,87.65,0,20.24,20.24,0,0,1,106,18.39Z"/><path class="cls-1" d="M106,21.88A20.24,20.24,0,0,1,87.65,40.26,20.25,20.25,0,0,1,106,21.88Z"/><path class="cls-1" d="M109.53,21.88a20.24,20.24,0,0,1,18.39,18.38A20.24,20.24,0,0,1,109.53,21.88Z"/><path class="cls-1" d="M171.74,0a20.25,20.25,0,0,1-18.38,18.39A20.24,20.24,0,0,1,171.74,0Z"/><path class="cls-1" d="M149.87,18.39A20.25,20.25,0,0,1,131.48,0,20.24,20.24,0,0,1,149.87,18.39Z"/><path class="cls-1" d="M149.87,21.88a20.25,20.25,0,0,1-18.39,18.38A20.24,20.24,0,0,1,149.87,21.88Z"/><path class="cls-1" d="M153.36,21.88a20.23,20.23,0,0,1,18.38,18.38A20.24,20.24,0,0,1,153.36,21.88Z"/><path class="cls-1" d="M215.57,0a20.25,20.25,0,0,1-18.38,18.39A20.23,20.23,0,0,1,215.57,0Z"/><path class="cls-1" d="M193.69,18.39A20.25,20.25,0,0,1,175.31,0,20.24,20.24,0,0,1,193.69,18.39Z"/><path class="cls-1" d="M193.69,21.88a20.23,20.23,0,0,1-18.38,18.38A20.24,20.24,0,0,1,193.69,21.88Z"/><path class="cls-1" d="M197.19,21.88a20.24,20.24,0,0,1,18.38,18.38A20.23,20.23,0,0,1,197.19,21.88Z"/><path class="cls-1" d="M259.4,0A20.25,20.25,0,0,1,241,18.39,20.24,20.24,0,0,1,259.4,0Z"/><path class="cls-1" d="M237.52,18.39A20.26,20.26,0,0,1,219.13,0,20.24,20.24,0,0,1,237.52,18.39Z"/><path class="cls-1" d="M237.52,21.88a20.24,20.24,0,0,1-18.39,18.38A20.25,20.25,0,0,1,237.52,21.88Z"/><path class="cls-1" d="M241,21.88A20.24,20.24,0,0,1,259.4,40.26,20.24,20.24,0,0,1,241,21.88Z"/><path class="cls-1" d="M303.22,0a20.24,20.24,0,0,1-18.38,18.39A20.24,20.24,0,0,1,303.22,0Z"/><path class="cls-1" d="M281.35,18.39A20.25,20.25,0,0,1,263,0,20.24,20.24,0,0,1,281.35,18.39Z"/><path class="cls-1" d="M281.35,21.88A20.24,20.24,0,0,1,263,40.26,20.24,20.24,0,0,1,281.35,21.88Z"/><path class="cls-1" d="M284.84,21.88a20.23,20.23,0,0,1,18.38,18.38A20.24,20.24,0,0,1,284.84,21.88Z"/><path class="cls-1" d="M347.05,0a20.25,20.25,0,0,1-18.38,18.39A20.24,20.24,0,0,1,347.05,0Z"/><path class="cls-1" d="M325.17,18.39A20.25,20.25,0,0,1,306.79,0,20.23,20.23,0,0,1,325.17,18.39Z"/><path class="cls-1" d="M325.17,21.88a20.23,20.23,0,0,1-18.38,18.38A20.24,20.24,0,0,1,325.17,21.88Z"/><path class="cls-1" d="M328.67,21.88a20.24,20.24,0,0,1,18.38,18.38A20.23,20.23,0,0,1,328.67,21.88Z"/><path class="cls-1" d="M390.88,0a20.25,20.25,0,0,1-18.39,18.39A20.24,20.24,0,0,1,390.88,0Z"/><path class="cls-1" d="M369,18.39A20.24,20.24,0,0,1,350.62,0,20.24,20.24,0,0,1,369,18.39Z"/><path class="cls-1" d="M369,21.88a20.24,20.24,0,0,1-18.38,18.38A20.23,20.23,0,0,1,369,21.88Z"/><path class="cls-1" d="M372.49,21.88a20.24,20.24,0,0,1,18.39,18.38A20.24,20.24,0,0,1,372.49,21.88Z"/><path class="cls-1" d="M434.71,0a20.26,20.26,0,0,1-18.39,18.39A20.24,20.24,0,0,1,434.71,0Z"/><path class="cls-1" d="M412.83,18.39A20.25,20.25,0,0,1,394.44,0,20.24,20.24,0,0,1,412.83,18.39Z"/><path class="cls-1" d="M412.83,21.88a20.24,20.24,0,0,1-18.39,18.38A20.24,20.24,0,0,1,412.83,21.88Z"/><path class="cls-1" d="M416.32,21.88a20.25,20.25,0,0,1,18.39,18.38A20.24,20.24,0,0,1,416.32,21.88Z"/><path class="cls-1" d="M478.53,0a20.25,20.25,0,0,1-18.38,18.39A20.24,20.24,0,0,1,478.53,0Z"/><path class="cls-1" d="M456.66,18.39A20.25,20.25,0,0,1,438.27,0,20.25,20.25,0,0,1,456.66,18.39Z"/><path class="cls-1" d="M456.66,21.88a20.25,20.25,0,0,1-18.39,18.38A20.24,20.24,0,0,1,456.66,21.88Z"/><path class="cls-1" d="M460.15,21.88a20.24,20.24,0,0,1,18.38,18.38A20.24,20.24,0,0,1,460.15,21.88Z"/><path class="cls-1" d="M522.36,0A20.25,20.25,0,0,1,504,18.39,20.25,20.25,0,0,1,522.36,0Z"/><path class="cls-1" d="M500.48,18.39A20.25,20.25,0,0,1,482.1,0,20.24,20.24,0,0,1,500.48,18.39Z"/><path class="cls-1" d="M500.48,21.88A20.24,20.24,0,0,1,482.1,40.26,20.23,20.23,0,0,1,500.48,21.88Z"/><path class="cls-1" d="M504,21.88a20.24,20.24,0,0,1,18.39,18.38A20.25,20.25,0,0,1,504,21.88Z"/><path class="cls-1" d="M566.19,0A20.26,20.26,0,0,1,547.8,18.39,20.24,20.24,0,0,1,566.19,0Z"/><path class="cls-1" d="M544.31,18.39A20.25,20.25,0,0,1,525.92,0,20.24,20.24,0,0,1,544.31,18.39Z"/><path class="cls-1" d="M544.31,21.88a20.24,20.24,0,0,1-18.39,18.38A20.24,20.24,0,0,1,544.31,21.88Z"/><path class="cls-1" d="M547.8,21.88a20.25,20.25,0,0,1,18.39,18.38A20.24,20.24,0,0,1,547.8,21.88Z"/><path class="cls-1" d="M610,0a20.25,20.25,0,0,1-18.38,18.39A20.24,20.24,0,0,1,610,0Z"/><path class="cls-1" d="M588.14,18.39A20.25,20.25,0,0,1,569.75,0,20.25,20.25,0,0,1,588.14,18.39Z"/><path class="cls-1" d="M588.14,21.88a20.25,20.25,0,0,1-18.39,18.38A20.24,20.24,0,0,1,588.14,21.88Z"/><path class="cls-1" d="M591.63,21.88A20.24,20.24,0,0,1,610,40.26,20.24,20.24,0,0,1,591.63,21.88Z"/><path class="cls-1" d="M653.84,0a20.25,20.25,0,0,1-18.39,18.39A20.25,20.25,0,0,1,653.84,0Z"/><path class="cls-1" d="M632,18.39A20.25,20.25,0,0,1,613.58,0,20.24,20.24,0,0,1,632,18.39Z"/><path class="cls-1" d="M632,21.88a20.24,20.24,0,0,1-18.38,18.38A20.24,20.24,0,0,1,632,21.88Z"/><path class="cls-1" d="M635.45,21.88a20.24,20.24,0,0,1,18.39,18.38A20.25,20.25,0,0,1,635.45,21.88Z"/><path class="cls-1" d="M697.67,0a20.26,20.26,0,0,1-18.39,18.39A20.24,20.24,0,0,1,697.67,0Z"/><path class="cls-1" d="M675.79,18.39A20.26,20.26,0,0,1,657.4,0,20.24,20.24,0,0,1,675.79,18.39Z"/><path class="cls-1" d="M675.79,21.88A20.24,20.24,0,0,1,657.4,40.26,20.25,20.25,0,0,1,675.79,21.88Z"/><path class="cls-1" d="M679.28,21.88a20.24,20.24,0,0,1,18.39,18.38A20.24,20.24,0,0,1,679.28,21.88Z"/><path class="cls-1" d="M40.26,45.22A20.25,20.25,0,0,1,21.88,63.61,20.24,20.24,0,0,1,40.26,45.22Z"/><path class="cls-1" d="M18.39,63.61A20.25,20.25,0,0,1,0,45.22,20.25,20.25,0,0,1,18.39,63.61Z"/><path class="cls-1" d="M18.39,67.1A20.25,20.25,0,0,1,0,85.48,20.24,20.24,0,0,1,18.39,67.1Z"/><path class="cls-1" d="M21.88,67.1A20.24,20.24,0,0,1,40.26,85.48,20.24,20.24,0,0,1,21.88,67.1Z"/><path class="cls-1" d="M84.09,45.22A20.25,20.25,0,0,1,65.7,63.61,20.25,20.25,0,0,1,84.09,45.22Z"/><path class="cls-1" d="M62.21,63.61A20.25,20.25,0,0,1,43.83,45.22,20.24,20.24,0,0,1,62.21,63.61Z"/><path class="cls-1" d="M62.21,67.1A20.24,20.24,0,0,1,43.83,85.48,20.24,20.24,0,0,1,62.21,67.1Z"/><path class="cls-1" d="M65.7,67.1A20.24,20.24,0,0,1,84.09,85.48,20.25,20.25,0,0,1,65.7,67.1Z"/><path class="cls-1" d="M127.92,45.22a20.25,20.25,0,0,1-18.39,18.39A20.24,20.24,0,0,1,127.92,45.22Z"/><path class="cls-1" d="M106,63.61A20.26,20.26,0,0,1,87.65,45.22,20.24,20.24,0,0,1,106,63.61Z"/><path class="cls-1" d="M106,67.1A20.24,20.24,0,0,1,87.65,85.48,20.25,20.25,0,0,1,106,67.1Z"/><path class="cls-1" d="M109.53,67.1a20.24,20.24,0,0,1,18.39,18.38A20.24,20.24,0,0,1,109.53,67.1Z"/><path class="cls-1" d="M171.74,45.22a20.25,20.25,0,0,1-18.38,18.39A20.24,20.24,0,0,1,171.74,45.22Z"/><path class="cls-1" d="M149.87,63.61a20.25,20.25,0,0,1-18.39-18.39A20.24,20.24,0,0,1,149.87,63.61Z"/><path class="cls-1" d="M149.87,67.1a20.25,20.25,0,0,1-18.39,18.38A20.24,20.24,0,0,1,149.87,67.1Z"/><path class="cls-1" d="M153.36,67.1a20.23,20.23,0,0,1,18.38,18.38A20.24,20.24,0,0,1,153.36,67.1Z"/><path class="cls-1" d="M215.57,45.22a20.25,20.25,0,0,1-18.38,18.39A20.23,20.23,0,0,1,215.57,45.22Z"/><path class="cls-1" d="M193.69,63.61a20.25,20.25,0,0,1-18.38-18.39A20.24,20.24,0,0,1,193.69,63.61Z"/><path class="cls-1" d="M193.69,67.1a20.23,20.23,0,0,1-18.38,18.38A20.24,20.24,0,0,1,193.69,67.1Z"/><path class="cls-1" d="M197.19,67.1a20.24,20.24,0,0,1,18.38,18.38A20.23,20.23,0,0,1,197.19,67.1Z"/><path class="cls-1" d="M259.4,45.22A20.25,20.25,0,0,1,241,63.61,20.24,20.24,0,0,1,259.4,45.22Z"/><path class="cls-1" d="M237.52,63.61a20.26,20.26,0,0,1-18.39-18.39A20.24,20.24,0,0,1,237.52,63.61Z"/><path class="cls-1" d="M237.52,67.1a20.24,20.24,0,0,1-18.39,18.38A20.25,20.25,0,0,1,237.52,67.1Z"/><path class="cls-1" d="M241,67.1A20.24,20.24,0,0,1,259.4,85.48,20.24,20.24,0,0,1,241,67.1Z"/><path class="cls-1" d="M303.22,45.22a20.24,20.24,0,0,1-18.38,18.39A20.24,20.24,0,0,1,303.22,45.22Z"/><path class="cls-1" d="M281.35,63.61A20.25,20.25,0,0,1,263,45.22,20.24,20.24,0,0,1,281.35,63.61Z"/><path class="cls-1" d="M281.35,67.1A20.24,20.24,0,0,1,263,85.48,20.24,20.24,0,0,1,281.35,67.1Z"/><path class="cls-1" d="M284.84,67.1a20.23,20.23,0,0,1,18.38,18.38A20.24,20.24,0,0,1,284.84,67.1Z"/><path class="cls-1" d="M347.05,45.22a20.25,20.25,0,0,1-18.38,18.39A20.24,20.24,0,0,1,347.05,45.22Z"/><path class="cls-1" d="M325.17,63.61a20.25,20.25,0,0,1-18.38-18.39A20.23,20.23,0,0,1,325.17,63.61Z"/><path class="cls-1" d="M325.17,67.1a20.23,20.23,0,0,1-18.38,18.38A20.24,20.24,0,0,1,325.17,67.1Z"/><path class="cls-1" d="M328.67,67.1a20.24,20.24,0,0,1,18.38,18.38A20.23,20.23,0,0,1,328.67,67.1Z"/><path class="cls-1" d="M390.88,45.22a20.25,20.25,0,0,1-18.39,18.39A20.24,20.24,0,0,1,390.88,45.22Z"/><path class="cls-1" d="M369,63.61a20.24,20.24,0,0,1-18.38-18.39A20.24,20.24,0,0,1,369,63.61Z"/><path class="cls-1" d="M369,67.1a20.24,20.24,0,0,1-18.38,18.38A20.23,20.23,0,0,1,369,67.1Z"/><path class="cls-1" d="M372.49,67.1a20.24,20.24,0,0,1,18.39,18.38A20.24,20.24,0,0,1,372.49,67.1Z"/><path class="cls-1" d="M434.71,45.22a20.26,20.26,0,0,1-18.39,18.39A20.24,20.24,0,0,1,434.71,45.22Z"/><path class="cls-1" d="M412.83,63.61a20.25,20.25,0,0,1-18.39-18.39A20.24,20.24,0,0,1,412.83,63.61Z"/><path class="cls-1" d="M412.83,67.1a20.24,20.24,0,0,1-18.39,18.38A20.24,20.24,0,0,1,412.83,67.1Z"/><path class="cls-1" d="M416.32,67.1a20.25,20.25,0,0,1,18.39,18.38A20.24,20.24,0,0,1,416.32,67.1Z"/><path class="cls-1" d="M478.53,45.22a20.25,20.25,0,0,1-18.38,18.39A20.24,20.24,0,0,1,478.53,45.22Z"/><path class="cls-1" d="M456.66,63.61a20.25,20.25,0,0,1-18.39-18.39A20.25,20.25,0,0,1,456.66,63.61Z"/><path class="cls-1" d="M456.66,67.1a20.25,20.25,0,0,1-18.39,18.38A20.24,20.24,0,0,1,456.66,67.1Z"/><path class="cls-1" d="M460.15,67.1a20.24,20.24,0,0,1,18.38,18.38A20.24,20.24,0,0,1,460.15,67.1Z"/><path class="cls-1" d="M522.36,45.22A20.25,20.25,0,0,1,504,63.61,20.25,20.25,0,0,1,522.36,45.22Z"/><path class="cls-1" d="M500.48,63.61A20.25,20.25,0,0,1,482.1,45.22,20.24,20.24,0,0,1,500.48,63.61Z"/><path class="cls-1" d="M500.48,67.1A20.24,20.24,0,0,1,482.1,85.48,20.23,20.23,0,0,1,500.48,67.1Z"/><path class="cls-1" d="M504,67.1a20.24,20.24,0,0,1,18.39,18.38A20.25,20.25,0,0,1,504,67.1Z"/><path class="cls-1" d="M566.19,45.22A20.26,20.26,0,0,1,547.8,63.61,20.24,20.24,0,0,1,566.19,45.22Z"/><path class="cls-1" d="M544.31,63.61a20.25,20.25,0,0,1-18.39-18.39A20.24,20.24,0,0,1,544.31,63.61Z"/><path class="cls-1" d="M544.31,67.1a20.24,20.24,0,0,1-18.39,18.38A20.24,20.24,0,0,1,544.31,67.1Z"/><path class="cls-1" d="M547.8,67.1a20.25,20.25,0,0,1,18.39,18.38A20.24,20.24,0,0,1,547.8,67.1Z"/><path class="cls-1" d="M610,45.22a20.25,20.25,0,0,1-18.38,18.39A20.24,20.24,0,0,1,610,45.22Z"/><path class="cls-1" d="M588.14,63.61a20.25,20.25,0,0,1-18.39-18.39A20.25,20.25,0,0,1,588.14,63.61Z"/><path class="cls-1" d="M588.14,67.1a20.25,20.25,0,0,1-18.39,18.38A20.24,20.24,0,0,1,588.14,67.1Z"/><path class="cls-1" d="M591.63,67.1A20.24,20.24,0,0,1,610,85.48,20.24,20.24,0,0,1,591.63,67.1Z"/><path class="cls-1" d="M653.84,45.22a20.25,20.25,0,0,1-18.39,18.39A20.25,20.25,0,0,1,653.84,45.22Z"/><path class="cls-1" d="M632,63.61a20.25,20.25,0,0,1-18.38-18.39A20.24,20.24,0,0,1,632,63.61Z"/><path class="cls-1" d="M632,67.1a20.24,20.24,0,0,1-18.38,18.38A20.24,20.24,0,0,1,632,67.1Z"/><path class="cls-1" d="M635.45,67.1a20.24,20.24,0,0,1,18.39,18.38A20.25,20.25,0,0,1,635.45,67.1Z"/><path class="cls-1" d="M697.67,45.22a20.26,20.26,0,0,1-18.39,18.39A20.24,20.24,0,0,1,697.67,45.22Z"/><path class="cls-1" d="M675.79,63.61A20.26,20.26,0,0,1,657.4,45.22,20.24,20.24,0,0,1,675.79,63.61Z"/><path class="cls-1" d="M675.79,67.1A20.24,20.24,0,0,1,657.4,85.48,20.25,20.25,0,0,1,675.79,67.1Z"/><path class="cls-1" d="M679.28,67.1a20.24,20.24,0,0,1,18.39,18.38A20.24,20.24,0,0,1,679.28,67.1Z"/><path class="cls-1" d="M40.26,90.44a20.25,20.25,0,0,1-18.38,18.39A20.24,20.24,0,0,1,40.26,90.44Z"/><path class="cls-1" d="M18.39,108.83A20.25,20.25,0,0,1,0,90.44,20.25,20.25,0,0,1,18.39,108.83Z"/><path class="cls-1" d="M18.39,112.32A20.24,20.24,0,0,1,0,130.7,20.24,20.24,0,0,1,18.39,112.32Z"/><path class="cls-1" d="M21.88,112.32A20.24,20.24,0,0,1,40.26,130.7,20.24,20.24,0,0,1,21.88,112.32Z"/><path class="cls-1" d="M84.09,90.44A20.25,20.25,0,0,1,65.7,108.83,20.25,20.25,0,0,1,84.09,90.44Z"/><path class="cls-1" d="M62.21,108.83A20.25,20.25,0,0,1,43.83,90.44,20.24,20.24,0,0,1,62.21,108.83Z"/><path class="cls-1" d="M62.21,112.32A20.23,20.23,0,0,1,43.83,130.7,20.24,20.24,0,0,1,62.21,112.32Z"/><path class="cls-1" d="M65.7,112.32A20.24,20.24,0,0,1,84.09,130.7,20.25,20.25,0,0,1,65.7,112.32Z"/><path class="cls-1" d="M127.92,90.44a20.25,20.25,0,0,1-18.39,18.39A20.24,20.24,0,0,1,127.92,90.44Z"/><path class="cls-1" d="M106,108.83A20.26,20.26,0,0,1,87.65,90.44,20.24,20.24,0,0,1,106,108.83Z"/><path class="cls-1" d="M106,112.32A20.23,20.23,0,0,1,87.65,130.7,20.25,20.25,0,0,1,106,112.32Z"/><path class="cls-1" d="M109.53,112.32a20.24,20.24,0,0,1,18.39,18.38A20.24,20.24,0,0,1,109.53,112.32Z"/><path class="cls-1" d="M171.74,90.44a20.25,20.25,0,0,1-18.38,18.39A20.24,20.24,0,0,1,171.74,90.44Z"/><path class="cls-1" d="M149.87,108.83a20.25,20.25,0,0,1-18.39-18.39A20.24,20.24,0,0,1,149.87,108.83Z"/><path class="cls-1" d="M149.87,112.32a20.24,20.24,0,0,1-18.39,18.38A20.24,20.24,0,0,1,149.87,112.32Z"/><path class="cls-1" d="M153.36,112.32a20.23,20.23,0,0,1,18.38,18.38A20.24,20.24,0,0,1,153.36,112.32Z"/><path class="cls-1" d="M215.57,90.44a20.25,20.25,0,0,1-18.38,18.39A20.23,20.23,0,0,1,215.57,90.44Z"/><path class="cls-1" d="M193.69,108.83a20.25,20.25,0,0,1-18.38-18.39A20.24,20.24,0,0,1,193.69,108.83Z"/><path class="cls-1" d="M193.69,112.32a20.22,20.22,0,0,1-18.38,18.38A20.24,20.24,0,0,1,193.69,112.32Z"/><path class="cls-1" d="M197.19,112.32a20.24,20.24,0,0,1,18.38,18.38A20.23,20.23,0,0,1,197.19,112.32Z"/><path class="cls-1" d="M259.4,90.44A20.25,20.25,0,0,1,241,108.83,20.24,20.24,0,0,1,259.4,90.44Z"/><path class="cls-1" d="M237.52,108.83a20.26,20.26,0,0,1-18.39-18.39A20.24,20.24,0,0,1,237.52,108.83Z"/><path class="cls-1" d="M237.52,112.32a20.23,20.23,0,0,1-18.39,18.38A20.25,20.25,0,0,1,237.52,112.32Z"/><path class="cls-1" d="M241,112.32A20.24,20.24,0,0,1,259.4,130.7,20.24,20.24,0,0,1,241,112.32Z"/><path class="cls-1" d="M303.22,90.44a20.24,20.24,0,0,1-18.38,18.39A20.24,20.24,0,0,1,303.22,90.44Z"/><path class="cls-1" d="M281.35,108.83A20.25,20.25,0,0,1,263,90.44,20.24,20.24,0,0,1,281.35,108.83Z"/><path class="cls-1" d="M281.35,112.32A20.23,20.23,0,0,1,263,130.7,20.24,20.24,0,0,1,281.35,112.32Z"/><path class="cls-1" d="M284.84,112.32a20.23,20.23,0,0,1,18.38,18.38A20.24,20.24,0,0,1,284.84,112.32Z"/><path class="cls-1" d="M347.05,90.44a20.25,20.25,0,0,1-18.38,18.39A20.24,20.24,0,0,1,347.05,90.44Z"/><path class="cls-1" d="M325.17,108.83a20.25,20.25,0,0,1-18.38-18.39A20.23,20.23,0,0,1,325.17,108.83Z"/><path class="cls-1" d="M325.17,112.32a20.22,20.22,0,0,1-18.38,18.38A20.24,20.24,0,0,1,325.17,112.32Z"/><path class="cls-1" d="M328.67,112.32a20.24,20.24,0,0,1,18.38,18.38A20.23,20.23,0,0,1,328.67,112.32Z"/><path class="cls-1" d="M390.88,90.44a20.25,20.25,0,0,1-18.39,18.39A20.24,20.24,0,0,1,390.88,90.44Z"/><path class="cls-1" d="M369,108.83a20.24,20.24,0,0,1-18.38-18.39A20.24,20.24,0,0,1,369,108.83Z"/><path class="cls-1" d="M369,112.32a20.23,20.23,0,0,1-18.38,18.38A20.23,20.23,0,0,1,369,112.32Z"/><path class="cls-1" d="M372.49,112.32a20.24,20.24,0,0,1,18.39,18.38A20.24,20.24,0,0,1,372.49,112.32Z"/><path class="cls-1" d="M434.71,90.44a20.26,20.26,0,0,1-18.39,18.39A20.24,20.24,0,0,1,434.71,90.44Z"/><path class="cls-1" d="M412.83,108.83a20.25,20.25,0,0,1-18.39-18.39A20.24,20.24,0,0,1,412.83,108.83Z"/><path class="cls-1" d="M412.83,112.32a20.23,20.23,0,0,1-18.39,18.38A20.24,20.24,0,0,1,412.83,112.32Z"/><path class="cls-1" d="M416.32,112.32a20.25,20.25,0,0,1,18.39,18.38A20.24,20.24,0,0,1,416.32,112.32Z"/><path class="cls-1" d="M478.53,90.44a20.25,20.25,0,0,1-18.38,18.39A20.24,20.24,0,0,1,478.53,90.44Z"/><path class="cls-1" d="M456.66,108.83a20.25,20.25,0,0,1-18.39-18.39A20.25,20.25,0,0,1,456.66,108.83Z"/><path class="cls-1" d="M456.66,112.32a20.24,20.24,0,0,1-18.39,18.38A20.24,20.24,0,0,1,456.66,112.32Z"/><path class="cls-1" d="M460.15,112.32a20.24,20.24,0,0,1,18.38,18.38A20.24,20.24,0,0,1,460.15,112.32Z"/><path class="cls-1" d="M522.36,90.44A20.25,20.25,0,0,1,504,108.83,20.25,20.25,0,0,1,522.36,90.44Z"/><path class="cls-1" d="M500.48,108.83A20.25,20.25,0,0,1,482.1,90.44,20.24,20.24,0,0,1,500.48,108.83Z"/><path class="cls-1" d="M500.48,112.32A20.23,20.23,0,0,1,482.1,130.7,20.23,20.23,0,0,1,500.48,112.32Z"/><path class="cls-1" d="M504,112.32a20.24,20.24,0,0,1,18.39,18.38A20.25,20.25,0,0,1,504,112.32Z"/><path class="cls-1" d="M566.19,90.44a20.26,20.26,0,0,1-18.39,18.39A20.24,20.24,0,0,1,566.19,90.44Z"/><path class="cls-1" d="M544.31,108.83a20.25,20.25,0,0,1-18.39-18.39A20.24,20.24,0,0,1,544.31,108.83Z"/><path class="cls-1" d="M544.31,112.32a20.23,20.23,0,0,1-18.39,18.38A20.24,20.24,0,0,1,544.31,112.32Z"/><path class="cls-1" d="M547.8,112.32a20.25,20.25,0,0,1,18.39,18.38A20.24,20.24,0,0,1,547.8,112.32Z"/><path class="cls-1" d="M610,90.44a20.25,20.25,0,0,1-18.38,18.39A20.24,20.24,0,0,1,610,90.44Z"/><path class="cls-1" d="M588.14,108.83a20.25,20.25,0,0,1-18.39-18.39A20.25,20.25,0,0,1,588.14,108.83Z"/><path class="cls-1" d="M588.14,112.32a20.24,20.24,0,0,1-18.39,18.38A20.24,20.24,0,0,1,588.14,112.32Z"/><path class="cls-1" d="M591.63,112.32A20.24,20.24,0,0,1,610,130.7,20.24,20.24,0,0,1,591.63,112.32Z"/><path class="cls-1" d="M653.84,90.44a20.25,20.25,0,0,1-18.39,18.39A20.25,20.25,0,0,1,653.84,90.44Z"/><path class="cls-1" d="M632,108.83a20.25,20.25,0,0,1-18.38-18.39A20.24,20.24,0,0,1,632,108.83Z"/><path class="cls-1" d="M632,112.32a20.23,20.23,0,0,1-18.38,18.38A20.24,20.24,0,0,1,632,112.32Z"/><path class="cls-1" d="M635.45,112.32a20.24,20.24,0,0,1,18.39,18.38A20.25,20.25,0,0,1,635.45,112.32Z"/><path class="cls-1" d="M697.67,90.44a20.26,20.26,0,0,1-18.39,18.39A20.24,20.24,0,0,1,697.67,90.44Z"/><path class="cls-1" d="M675.79,108.83A20.26,20.26,0,0,1,657.4,90.44,20.24,20.24,0,0,1,675.79,108.83Z"/><path class="cls-1" d="M675.79,112.32A20.23,20.23,0,0,1,657.4,130.7,20.25,20.25,0,0,1,675.79,112.32Z"/><path class="cls-1" d="M679.28,112.32a20.24,20.24,0,0,1,18.39,18.38A20.24,20.24,0,0,1,679.28,112.32Z"/><path class="cls-1" d="M40.26,135.66a20.24,20.24,0,0,1-18.38,18.39A20.24,20.24,0,0,1,40.26,135.66Z"/><path class="cls-1" d="M18.39,154.05A20.24,20.24,0,0,1,0,135.66,20.25,20.25,0,0,1,18.39,154.05Z"/><path class="cls-1" d="M18.39,157.54A20.24,20.24,0,0,1,0,175.92,20.24,20.24,0,0,1,18.39,157.54Z"/><path class="cls-1" d="M21.88,157.54a20.24,20.24,0,0,1,18.38,18.38A20.23,20.23,0,0,1,21.88,157.54Z"/><path class="cls-1" d="M84.09,135.66A20.24,20.24,0,0,1,65.7,154.05,20.25,20.25,0,0,1,84.09,135.66Z"/><path class="cls-1" d="M62.21,154.05a20.24,20.24,0,0,1-18.38-18.39A20.24,20.24,0,0,1,62.21,154.05Z"/><path class="cls-1" d="M62.21,157.54a20.23,20.23,0,0,1-18.38,18.38A20.24,20.24,0,0,1,62.21,157.54Z"/><path class="cls-1" d="M65.7,157.54a20.24,20.24,0,0,1,18.39,18.38A20.24,20.24,0,0,1,65.7,157.54Z"/><path class="cls-1" d="M127.92,135.66a20.24,20.24,0,0,1-18.39,18.39A20.24,20.24,0,0,1,127.92,135.66Z"/><path class="cls-1" d="M106,154.05a20.25,20.25,0,0,1-18.39-18.39A20.24,20.24,0,0,1,106,154.05Z"/><path class="cls-1" d="M106,157.54a20.23,20.23,0,0,1-18.39,18.38A20.25,20.25,0,0,1,106,157.54Z"/><path class="cls-1" d="M109.53,157.54a20.24,20.24,0,0,1,18.39,18.38A20.23,20.23,0,0,1,109.53,157.54Z"/><path class="cls-1" d="M171.74,135.66a20.24,20.24,0,0,1-18.38,18.39A20.24,20.24,0,0,1,171.74,135.66Z"/><path class="cls-1" d="M149.87,154.05a20.24,20.24,0,0,1-18.39-18.39A20.24,20.24,0,0,1,149.87,154.05Z"/><path class="cls-1" d="M149.87,157.54a20.24,20.24,0,0,1-18.39,18.38A20.24,20.24,0,0,1,149.87,157.54Z"/><path class="cls-1" d="M153.36,157.54a20.23,20.23,0,0,1,18.38,18.38A20.23,20.23,0,0,1,153.36,157.54Z"/><path class="cls-1" d="M215.57,135.66a20.24,20.24,0,0,1-18.38,18.39A20.23,20.23,0,0,1,215.57,135.66Z"/><path class="cls-1" d="M193.69,154.05a20.24,20.24,0,0,1-18.38-18.39A20.24,20.24,0,0,1,193.69,154.05Z"/><path class="cls-1" d="M193.69,157.54a20.22,20.22,0,0,1-18.38,18.38A20.24,20.24,0,0,1,193.69,157.54Z"/><path class="cls-1" d="M197.19,157.54a20.24,20.24,0,0,1,18.38,18.38A20.22,20.22,0,0,1,197.19,157.54Z"/><path class="cls-1" d="M259.4,135.66A20.24,20.24,0,0,1,241,154.05,20.24,20.24,0,0,1,259.4,135.66Z"/><path class="cls-1" d="M237.52,154.05a20.25,20.25,0,0,1-18.39-18.39A20.24,20.24,0,0,1,237.52,154.05Z"/><path class="cls-1" d="M237.52,157.54a20.23,20.23,0,0,1-18.39,18.38A20.25,20.25,0,0,1,237.52,157.54Z"/><path class="cls-1" d="M241,157.54a20.24,20.24,0,0,1,18.39,18.38A20.23,20.23,0,0,1,241,157.54Z"/><path class="cls-1" d="M303.22,135.66a20.23,20.23,0,0,1-18.38,18.39A20.24,20.24,0,0,1,303.22,135.66Z"/><path class="cls-1" d="M281.35,154.05A20.24,20.24,0,0,1,263,135.66,20.24,20.24,0,0,1,281.35,154.05Z"/><path class="cls-1" d="M281.35,157.54A20.23,20.23,0,0,1,263,175.92,20.24,20.24,0,0,1,281.35,157.54Z"/><path class="cls-1" d="M284.84,157.54a20.23,20.23,0,0,1,18.38,18.38A20.23,20.23,0,0,1,284.84,157.54Z"/><path class="cls-1" d="M347.05,135.66a20.24,20.24,0,0,1-18.38,18.39A20.24,20.24,0,0,1,347.05,135.66Z"/><path class="cls-1" d="M325.17,154.05a20.24,20.24,0,0,1-18.38-18.39A20.23,20.23,0,0,1,325.17,154.05Z"/><path class="cls-1" d="M325.17,157.54a20.22,20.22,0,0,1-18.38,18.38A20.24,20.24,0,0,1,325.17,157.54Z"/><path class="cls-1" d="M328.67,157.54a20.24,20.24,0,0,1,18.38,18.38A20.22,20.22,0,0,1,328.67,157.54Z"/><path class="cls-1" d="M390.88,135.66a20.24,20.24,0,0,1-18.39,18.39A20.24,20.24,0,0,1,390.88,135.66Z"/><path class="cls-1" d="M369,154.05a20.23,20.23,0,0,1-18.38-18.39A20.24,20.24,0,0,1,369,154.05Z"/><path class="cls-1" d="M369,157.54a20.23,20.23,0,0,1-18.38,18.38A20.23,20.23,0,0,1,369,157.54Z"/><path class="cls-1" d="M372.49,157.54a20.24,20.24,0,0,1,18.39,18.38A20.23,20.23,0,0,1,372.49,157.54Z"/><path class="cls-1" d="M434.71,135.66a20.25,20.25,0,0,1-18.39,18.39A20.24,20.24,0,0,1,434.71,135.66Z"/><path class="cls-1" d="M412.83,154.05a20.24,20.24,0,0,1-18.39-18.39A20.24,20.24,0,0,1,412.83,154.05Z"/><path class="cls-1" d="M412.83,157.54a20.23,20.23,0,0,1-18.39,18.38A20.24,20.24,0,0,1,412.83,157.54Z"/><path class="cls-1" d="M416.32,157.54a20.25,20.25,0,0,1,18.39,18.38A20.23,20.23,0,0,1,416.32,157.54Z"/><path class="cls-1" d="M478.53,135.66a20.24,20.24,0,0,1-18.38,18.39A20.24,20.24,0,0,1,478.53,135.66Z"/><path class="cls-1" d="M456.66,154.05a20.24,20.24,0,0,1-18.39-18.39A20.25,20.25,0,0,1,456.66,154.05Z"/><path class="cls-1" d="M456.66,157.54a20.24,20.24,0,0,1-18.39,18.38A20.24,20.24,0,0,1,456.66,157.54Z"/><path class="cls-1" d="M460.15,157.54a20.24,20.24,0,0,1,18.38,18.38A20.23,20.23,0,0,1,460.15,157.54Z"/><path class="cls-1" d="M522.36,135.66A20.24,20.24,0,0,1,504,154.05,20.25,20.25,0,0,1,522.36,135.66Z"/><path class="cls-1" d="M500.48,154.05a20.24,20.24,0,0,1-18.38-18.39A20.24,20.24,0,0,1,500.48,154.05Z"/><path class="cls-1" d="M500.48,157.54a20.23,20.23,0,0,1-18.38,18.38A20.23,20.23,0,0,1,500.48,157.54Z"/><path class="cls-1" d="M504,157.54a20.24,20.24,0,0,1,18.39,18.38A20.24,20.24,0,0,1,504,157.54Z"/><path class="cls-1" d="M566.19,135.66a20.25,20.25,0,0,1-18.39,18.39A20.24,20.24,0,0,1,566.19,135.66Z"/><path class="cls-1" d="M544.31,154.05a20.24,20.24,0,0,1-18.39-18.39A20.24,20.24,0,0,1,544.31,154.05Z"/><path class="cls-1" d="M544.31,157.54a20.23,20.23,0,0,1-18.39,18.38A20.24,20.24,0,0,1,544.31,157.54Z"/><path class="cls-1" d="M547.8,157.54a20.25,20.25,0,0,1,18.39,18.38A20.23,20.23,0,0,1,547.8,157.54Z"/><path class="cls-1" d="M610,135.66a20.24,20.24,0,0,1-18.38,18.39A20.24,20.24,0,0,1,610,135.66Z"/><path class="cls-1" d="M588.14,154.05a20.24,20.24,0,0,1-18.39-18.39A20.25,20.25,0,0,1,588.14,154.05Z"/><path class="cls-1" d="M588.14,157.54a20.24,20.24,0,0,1-18.39,18.38A20.24,20.24,0,0,1,588.14,157.54Z"/><path class="cls-1" d="M591.63,157.54A20.24,20.24,0,0,1,610,175.92,20.23,20.23,0,0,1,591.63,157.54Z"/><path class="cls-1" d="M653.84,135.66a20.24,20.24,0,0,1-18.39,18.39A20.25,20.25,0,0,1,653.84,135.66Z"/><path class="cls-1" d="M632,154.05a20.24,20.24,0,0,1-18.38-18.39A20.24,20.24,0,0,1,632,154.05Z"/><path class="cls-1" d="M632,157.54a20.23,20.23,0,0,1-18.38,18.38A20.24,20.24,0,0,1,632,157.54Z"/><path class="cls-1" d="M635.45,157.54a20.24,20.24,0,0,1,18.39,18.38A20.24,20.24,0,0,1,635.45,157.54Z"/><path class="cls-1" d="M697.67,135.66a20.25,20.25,0,0,1-18.39,18.39A20.24,20.24,0,0,1,697.67,135.66Z"/><path class="cls-1" d="M675.79,154.05a20.25,20.25,0,0,1-18.39-18.39A20.24,20.24,0,0,1,675.79,154.05Z"/><path class="cls-1" d="M675.79,157.54a20.23,20.23,0,0,1-18.39,18.38A20.25,20.25,0,0,1,675.79,157.54Z"/><path class="cls-1" d="M679.28,157.54a20.24,20.24,0,0,1,18.39,18.38A20.23,20.23,0,0,1,679.28,157.54Z"/><path class="cls-1" d="M40.26,180.88a20.24,20.24,0,0,1-18.38,18.39A20.24,20.24,0,0,1,40.26,180.88Z"/><path class="cls-1" d="M18.39,199.27A20.24,20.24,0,0,1,0,180.88,20.25,20.25,0,0,1,18.39,199.27Z"/><path class="cls-1" d="M18.39,202.76A20.24,20.24,0,0,1,0,221.14,20.24,20.24,0,0,1,18.39,202.76Z"/><path class="cls-1" d="M21.88,202.76a20.24,20.24,0,0,1,18.38,18.38A20.23,20.23,0,0,1,21.88,202.76Z"/><path class="cls-1" d="M84.09,180.88A20.24,20.24,0,0,1,65.7,199.27,20.25,20.25,0,0,1,84.09,180.88Z"/><path class="cls-1" d="M62.21,199.27a20.24,20.24,0,0,1-18.38-18.39A20.24,20.24,0,0,1,62.21,199.27Z"/><path class="cls-1" d="M62.21,202.76a20.23,20.23,0,0,1-18.38,18.38A20.24,20.24,0,0,1,62.21,202.76Z"/><path class="cls-1" d="M65.7,202.76a20.24,20.24,0,0,1,18.39,18.38A20.24,20.24,0,0,1,65.7,202.76Z"/><path class="cls-1" d="M127.92,180.88a20.24,20.24,0,0,1-18.39,18.39A20.24,20.24,0,0,1,127.92,180.88Z"/><path class="cls-1" d="M106,199.27a20.25,20.25,0,0,1-18.39-18.39A20.24,20.24,0,0,1,106,199.27Z"/><path class="cls-1" d="M106,202.76a20.23,20.23,0,0,1-18.39,18.38A20.25,20.25,0,0,1,106,202.76Z"/><path class="cls-1" d="M109.53,202.76a20.24,20.24,0,0,1,18.39,18.38A20.23,20.23,0,0,1,109.53,202.76Z"/><path class="cls-1" d="M171.74,180.88a20.24,20.24,0,0,1-18.38,18.39A20.24,20.24,0,0,1,171.74,180.88Z"/><path class="cls-1" d="M149.87,199.27a20.24,20.24,0,0,1-18.39-18.39A20.24,20.24,0,0,1,149.87,199.27Z"/><path class="cls-1" d="M149.87,202.76a20.24,20.24,0,0,1-18.39,18.38A20.24,20.24,0,0,1,149.87,202.76Z"/><path class="cls-1" d="M153.36,202.76a20.23,20.23,0,0,1,18.38,18.38A20.23,20.23,0,0,1,153.36,202.76Z"/><path class="cls-1" d="M215.57,180.88a20.24,20.24,0,0,1-18.38,18.39A20.23,20.23,0,0,1,215.57,180.88Z"/><path class="cls-1" d="M193.69,199.27a20.24,20.24,0,0,1-18.38-18.39A20.24,20.24,0,0,1,193.69,199.27Z"/><path class="cls-1" d="M193.69,202.76a20.22,20.22,0,0,1-18.38,18.38A20.24,20.24,0,0,1,193.69,202.76Z"/><path class="cls-1" d="M197.19,202.76a20.24,20.24,0,0,1,18.38,18.38A20.22,20.22,0,0,1,197.19,202.76Z"/><path class="cls-1" d="M259.4,180.88A20.24,20.24,0,0,1,241,199.27,20.24,20.24,0,0,1,259.4,180.88Z"/><path class="cls-1" d="M237.52,199.27a20.25,20.25,0,0,1-18.39-18.39A20.24,20.24,0,0,1,237.52,199.27Z"/><path class="cls-1" d="M237.52,202.76a20.23,20.23,0,0,1-18.39,18.38A20.25,20.25,0,0,1,237.52,202.76Z"/><path class="cls-1" d="M241,202.76a20.24,20.24,0,0,1,18.39,18.38A20.23,20.23,0,0,1,241,202.76Z"/><path class="cls-1" d="M303.22,180.88a20.23,20.23,0,0,1-18.38,18.39A20.24,20.24,0,0,1,303.22,180.88Z"/><path class="cls-1" d="M281.35,199.27A20.24,20.24,0,0,1,263,180.88,20.24,20.24,0,0,1,281.35,199.27Z"/><path class="cls-1" d="M281.35,202.76A20.23,20.23,0,0,1,263,221.14,20.24,20.24,0,0,1,281.35,202.76Z"/><path class="cls-1" d="M284.84,202.76a20.23,20.23,0,0,1,18.38,18.38A20.23,20.23,0,0,1,284.84,202.76Z"/><path class="cls-1" d="M347.05,180.88a20.24,20.24,0,0,1-18.38,18.39A20.24,20.24,0,0,1,347.05,180.88Z"/><path class="cls-1" d="M325.17,199.27a20.24,20.24,0,0,1-18.38-18.39A20.23,20.23,0,0,1,325.17,199.27Z"/><path class="cls-1" d="M325.17,202.76a20.22,20.22,0,0,1-18.38,18.38A20.24,20.24,0,0,1,325.17,202.76Z"/><path class="cls-1" d="M328.67,202.76a20.24,20.24,0,0,1,18.38,18.38A20.22,20.22,0,0,1,328.67,202.76Z"/><path class="cls-1" d="M390.88,180.88a20.24,20.24,0,0,1-18.39,18.39A20.24,20.24,0,0,1,390.88,180.88Z"/><path class="cls-1" d="M369,199.27a20.23,20.23,0,0,1-18.38-18.39A20.24,20.24,0,0,1,369,199.27Z"/><path class="cls-1" d="M369,202.76a20.23,20.23,0,0,1-18.38,18.38A20.23,20.23,0,0,1,369,202.76Z"/><path class="cls-1" d="M372.49,202.76a20.24,20.24,0,0,1,18.39,18.38A20.23,20.23,0,0,1,372.49,202.76Z"/><path class="cls-1" d="M434.71,180.88a20.25,20.25,0,0,1-18.39,18.39A20.24,20.24,0,0,1,434.71,180.88Z"/><path class="cls-1" d="M412.83,199.27a20.24,20.24,0,0,1-18.39-18.39A20.24,20.24,0,0,1,412.83,199.27Z"/><path class="cls-1" d="M412.83,202.76a20.23,20.23,0,0,1-18.39,18.38A20.24,20.24,0,0,1,412.83,202.76Z"/><path class="cls-1" d="M416.32,202.76a20.25,20.25,0,0,1,18.39,18.38A20.23,20.23,0,0,1,416.32,202.76Z"/><path class="cls-1" d="M478.53,180.88a20.24,20.24,0,0,1-18.38,18.39A20.24,20.24,0,0,1,478.53,180.88Z"/><path class="cls-1" d="M456.66,199.27a20.24,20.24,0,0,1-18.39-18.39A20.25,20.25,0,0,1,456.66,199.27Z"/><path class="cls-1" d="M456.66,202.76a20.24,20.24,0,0,1-18.39,18.38A20.24,20.24,0,0,1,456.66,202.76Z"/><path class="cls-1" d="M460.15,202.76a20.24,20.24,0,0,1,18.38,18.38A20.23,20.23,0,0,1,460.15,202.76Z"/><path class="cls-1" d="M522.36,180.88A20.24,20.24,0,0,1,504,199.27,20.25,20.25,0,0,1,522.36,180.88Z"/><path class="cls-1" d="M500.48,199.27a20.24,20.24,0,0,1-18.38-18.39A20.24,20.24,0,0,1,500.48,199.27Z"/><path class="cls-1" d="M500.48,202.76a20.23,20.23,0,0,1-18.38,18.38A20.23,20.23,0,0,1,500.48,202.76Z"/><path class="cls-1" d="M504,202.76a20.24,20.24,0,0,1,18.39,18.38A20.24,20.24,0,0,1,504,202.76Z"/><path class="cls-1" d="M566.19,180.88a20.25,20.25,0,0,1-18.39,18.39A20.24,20.24,0,0,1,566.19,180.88Z"/><path class="cls-1" d="M544.31,199.27a20.24,20.24,0,0,1-18.39-18.39A20.24,20.24,0,0,1,544.31,199.27Z"/><path class="cls-1" d="M544.31,202.76a20.23,20.23,0,0,1-18.39,18.38A20.24,20.24,0,0,1,544.31,202.76Z"/><path class="cls-1" d="M547.8,202.76a20.25,20.25,0,0,1,18.39,18.38A20.23,20.23,0,0,1,547.8,202.76Z"/><path class="cls-1" d="M610,180.88a20.24,20.24,0,0,1-18.38,18.39A20.24,20.24,0,0,1,610,180.88Z"/><path class="cls-1" d="M588.14,199.27a20.24,20.24,0,0,1-18.39-18.39A20.25,20.25,0,0,1,588.14,199.27Z"/><path class="cls-1" d="M588.14,202.76a20.24,20.24,0,0,1-18.39,18.38A20.24,20.24,0,0,1,588.14,202.76Z"/><path class="cls-1" d="M591.63,202.76A20.24,20.24,0,0,1,610,221.14,20.23,20.23,0,0,1,591.63,202.76Z"/><path class="cls-1" d="M653.84,180.88a20.24,20.24,0,0,1-18.39,18.39A20.25,20.25,0,0,1,653.84,180.88Z"/><path class="cls-1" d="M632,199.27a20.24,20.24,0,0,1-18.38-18.39A20.24,20.24,0,0,1,632,199.27Z"/><path class="cls-1" d="M632,202.76a20.23,20.23,0,0,1-18.38,18.38A20.24,20.24,0,0,1,632,202.76Z"/><path class="cls-1" d="M635.45,202.76a20.24,20.24,0,0,1,18.39,18.38A20.24,20.24,0,0,1,635.45,202.76Z"/><path class="cls-1" d="M697.67,180.88a20.25,20.25,0,0,1-18.39,18.39A20.24,20.24,0,0,1,697.67,180.88Z"/><path class="cls-1" d="M675.79,199.27a20.25,20.25,0,0,1-18.39-18.39A20.24,20.24,0,0,1,675.79,199.27Z"/><path class="cls-1" d="M675.79,202.76a20.23,20.23,0,0,1-18.39,18.38A20.25,20.25,0,0,1,675.79,202.76Z"/><path class="cls-1" d="M679.28,202.76a20.24,20.24,0,0,1,18.39,18.38A20.23,20.23,0,0,1,679.28,202.76Z"/><path class="cls-1" d="M40.26,226.1a20.24,20.24,0,0,1-18.38,18.39A20.24,20.24,0,0,1,40.26,226.1Z"/><path class="cls-1" d="M18.39,244.49A20.24,20.24,0,0,1,0,226.1,20.25,20.25,0,0,1,18.39,244.49Z"/><path class="cls-1" d="M18.39,248A20.26,20.26,0,0,1,0,266.37,20.24,20.24,0,0,1,18.39,248Z"/><path class="cls-1" d="M21.88,248a20.24,20.24,0,0,1,18.38,18.39A20.25,20.25,0,0,1,21.88,248Z"/><path class="cls-1" d="M84.09,226.1A20.24,20.24,0,0,1,65.7,244.49,20.25,20.25,0,0,1,84.09,226.1Z"/><path class="cls-1" d="M62.21,244.49A20.24,20.24,0,0,1,43.83,226.1,20.24,20.24,0,0,1,62.21,244.49Z"/><path class="cls-1" d="M62.21,248a20.25,20.25,0,0,1-18.38,18.39A20.24,20.24,0,0,1,62.21,248Z"/><path class="cls-1" d="M65.7,248a20.24,20.24,0,0,1,18.39,18.39A20.26,20.26,0,0,1,65.7,248Z"/><path class="cls-1" d="M127.92,226.1a20.24,20.24,0,0,1-18.39,18.39A20.24,20.24,0,0,1,127.92,226.1Z"/><path class="cls-1" d="M106,244.49A20.25,20.25,0,0,1,87.65,226.1,20.24,20.24,0,0,1,106,244.49Z"/><path class="cls-1" d="M106,248a20.25,20.25,0,0,1-18.39,18.39A20.25,20.25,0,0,1,106,248Z"/><path class="cls-1" d="M109.53,248a20.24,20.24,0,0,1,18.39,18.39A20.25,20.25,0,0,1,109.53,248Z"/><path class="cls-1" d="M171.74,226.1a20.24,20.24,0,0,1-18.38,18.39A20.24,20.24,0,0,1,171.74,226.1Z"/><path class="cls-1" d="M149.87,244.49a20.24,20.24,0,0,1-18.39-18.39A20.24,20.24,0,0,1,149.87,244.49Z"/><path class="cls-1" d="M149.87,248a20.26,20.26,0,0,1-18.39,18.39A20.24,20.24,0,0,1,149.87,248Z"/><path class="cls-1" d="M153.36,248a20.23,20.23,0,0,1,18.38,18.39A20.25,20.25,0,0,1,153.36,248Z"/><path class="cls-1" d="M215.57,226.1a20.24,20.24,0,0,1-18.38,18.39A20.23,20.23,0,0,1,215.57,226.1Z"/><path class="cls-1" d="M193.69,244.49a20.24,20.24,0,0,1-18.38-18.39A20.24,20.24,0,0,1,193.69,244.49Z"/><path class="cls-1" d="M193.69,248a20.24,20.24,0,0,1-18.38,18.39A20.24,20.24,0,0,1,193.69,248Z"/><path class="cls-1" d="M197.19,248a20.24,20.24,0,0,1,18.38,18.39A20.24,20.24,0,0,1,197.19,248Z"/><path class="cls-1" d="M259.4,226.1A20.24,20.24,0,0,1,241,244.49,20.24,20.24,0,0,1,259.4,226.1Z"/><path class="cls-1" d="M237.52,244.49a20.25,20.25,0,0,1-18.39-18.39A20.24,20.24,0,0,1,237.52,244.49Z"/><path class="cls-1" d="M237.52,248a20.25,20.25,0,0,1-18.39,18.39A20.25,20.25,0,0,1,237.52,248Z"/><path class="cls-1" d="M241,248a20.24,20.24,0,0,1,18.39,18.39A20.25,20.25,0,0,1,241,248Z"/><path class="cls-1" d="M303.22,226.1a20.23,20.23,0,0,1-18.38,18.39A20.24,20.24,0,0,1,303.22,226.1Z"/><path class="cls-1" d="M281.35,244.49A20.24,20.24,0,0,1,263,226.1,20.24,20.24,0,0,1,281.35,244.49Z"/><path class="cls-1" d="M281.35,248A20.25,20.25,0,0,1,263,266.37,20.24,20.24,0,0,1,281.35,248Z"/><path class="cls-1" d="M284.84,248a20.23,20.23,0,0,1,18.38,18.39A20.25,20.25,0,0,1,284.84,248Z"/><path class="cls-1" d="M347.05,226.1a20.24,20.24,0,0,1-18.38,18.39A20.24,20.24,0,0,1,347.05,226.1Z"/><path class="cls-1" d="M325.17,244.49a20.24,20.24,0,0,1-18.38-18.39A20.23,20.23,0,0,1,325.17,244.49Z"/><path class="cls-1" d="M325.17,248a20.24,20.24,0,0,1-18.38,18.39A20.24,20.24,0,0,1,325.17,248Z"/><path class="cls-1" d="M328.67,248a20.24,20.24,0,0,1,18.38,18.39A20.24,20.24,0,0,1,328.67,248Z"/><path class="cls-1" d="M390.88,226.1a20.24,20.24,0,0,1-18.39,18.39A20.24,20.24,0,0,1,390.88,226.1Z"/><path class="cls-1" d="M369,244.49a20.23,20.23,0,0,1-18.38-18.39A20.24,20.24,0,0,1,369,244.49Z"/><path class="cls-1" d="M369,248a20.25,20.25,0,0,1-18.38,18.39A20.23,20.23,0,0,1,369,248Z"/><path class="cls-1" d="M372.49,248a20.24,20.24,0,0,1,18.39,18.39A20.25,20.25,0,0,1,372.49,248Z"/><path class="cls-1" d="M434.71,226.1a20.25,20.25,0,0,1-18.39,18.39A20.24,20.24,0,0,1,434.71,226.1Z"/><path class="cls-1" d="M412.83,244.49a20.24,20.24,0,0,1-18.39-18.39A20.24,20.24,0,0,1,412.83,244.49Z"/><path class="cls-1" d="M412.83,248a20.25,20.25,0,0,1-18.39,18.39A20.24,20.24,0,0,1,412.83,248Z"/><path class="cls-1" d="M416.32,248a20.25,20.25,0,0,1,18.39,18.39A20.25,20.25,0,0,1,416.32,248Z"/><path class="cls-1" d="M478.53,226.1a20.24,20.24,0,0,1-18.38,18.39A20.24,20.24,0,0,1,478.53,226.1Z"/><path class="cls-1" d="M456.66,244.49a20.24,20.24,0,0,1-18.39-18.39A20.25,20.25,0,0,1,456.66,244.49Z"/><path class="cls-1" d="M456.66,248a20.26,20.26,0,0,1-18.39,18.39A20.24,20.24,0,0,1,456.66,248Z"/><path class="cls-1" d="M460.15,248a20.24,20.24,0,0,1,18.38,18.39A20.25,20.25,0,0,1,460.15,248Z"/><path class="cls-1" d="M522.36,226.1A20.24,20.24,0,0,1,504,244.49,20.25,20.25,0,0,1,522.36,226.1Z"/><path class="cls-1" d="M500.48,244.49A20.24,20.24,0,0,1,482.1,226.1,20.24,20.24,0,0,1,500.48,244.49Z"/><path class="cls-1" d="M500.48,248a20.25,20.25,0,0,1-18.38,18.39A20.23,20.23,0,0,1,500.48,248Z"/><path class="cls-1" d="M504,248a20.24,20.24,0,0,1,18.39,18.39A20.26,20.26,0,0,1,504,248Z"/><path class="cls-1" d="M566.19,226.1a20.25,20.25,0,0,1-18.39,18.39A20.24,20.24,0,0,1,566.19,226.1Z"/><path class="cls-1" d="M544.31,244.49a20.24,20.24,0,0,1-18.39-18.39A20.24,20.24,0,0,1,544.31,244.49Z"/><path class="cls-1" d="M544.31,248a20.25,20.25,0,0,1-18.39,18.39A20.24,20.24,0,0,1,544.31,248Z"/><path class="cls-1" d="M547.8,248a20.25,20.25,0,0,1,18.39,18.39A20.25,20.25,0,0,1,547.8,248Z"/><path class="cls-1" d="M610,226.1a20.24,20.24,0,0,1-18.38,18.39A20.24,20.24,0,0,1,610,226.1Z"/><path class="cls-1" d="M588.14,244.49a20.24,20.24,0,0,1-18.39-18.39A20.25,20.25,0,0,1,588.14,244.49Z"/><path class="cls-1" d="M588.14,248a20.26,20.26,0,0,1-18.39,18.39A20.24,20.24,0,0,1,588.14,248Z"/><path class="cls-1" d="M591.63,248A20.24,20.24,0,0,1,610,266.37,20.25,20.25,0,0,1,591.63,248Z"/><path class="cls-1" d="M653.84,226.1a20.24,20.24,0,0,1-18.39,18.39A20.25,20.25,0,0,1,653.84,226.1Z"/><path class="cls-1" d="M632,244.49a20.24,20.24,0,0,1-18.38-18.39A20.24,20.24,0,0,1,632,244.49Z"/><path class="cls-1" d="M632,248a20.25,20.25,0,0,1-18.38,18.39A20.24,20.24,0,0,1,632,248Z"/><path class="cls-1" d="M635.45,248a20.24,20.24,0,0,1,18.39,18.39A20.26,20.26,0,0,1,635.45,248Z"/><path class="cls-1" d="M697.67,226.1a20.25,20.25,0,0,1-18.39,18.39A20.24,20.24,0,0,1,697.67,226.1Z"/><path class="cls-1" d="M675.79,244.49A20.25,20.25,0,0,1,657.4,226.1,20.24,20.24,0,0,1,675.79,244.49Z"/><path class="cls-1" d="M675.79,248a20.25,20.25,0,0,1-18.39,18.39A20.25,20.25,0,0,1,675.79,248Z"/><path class="cls-1" d="M679.28,248a20.24,20.24,0,0,1,18.39,18.39A20.25,20.25,0,0,1,679.28,248Z"/><path class="cls-1" d="M40.26,271.32a20.24,20.24,0,0,1-18.38,18.39A20.24,20.24,0,0,1,40.26,271.32Z"/><path class="cls-1" d="M18.39,289.71A20.24,20.24,0,0,1,0,271.32,20.25,20.25,0,0,1,18.39,289.71Z"/><path class="cls-1" d="M18.39,293.2A20.26,20.26,0,0,1,0,311.59,20.24,20.24,0,0,1,18.39,293.2Z"/><path class="cls-1" d="M21.88,293.2a20.24,20.24,0,0,1,18.38,18.39A20.25,20.25,0,0,1,21.88,293.2Z"/><path class="cls-1" d="M84.09,271.32A20.24,20.24,0,0,1,65.7,289.71,20.25,20.25,0,0,1,84.09,271.32Z"/><path class="cls-1" d="M62.21,289.71a20.24,20.24,0,0,1-18.38-18.39A20.24,20.24,0,0,1,62.21,289.71Z"/><path class="cls-1" d="M62.21,293.2a20.25,20.25,0,0,1-18.38,18.39A20.24,20.24,0,0,1,62.21,293.2Z"/><path class="cls-1" d="M65.7,293.2a20.24,20.24,0,0,1,18.39,18.39A20.26,20.26,0,0,1,65.7,293.2Z"/><path class="cls-1" d="M127.92,271.32a20.24,20.24,0,0,1-18.39,18.39A20.24,20.24,0,0,1,127.92,271.32Z"/><path class="cls-1" d="M106,289.71a20.25,20.25,0,0,1-18.39-18.39A20.24,20.24,0,0,1,106,289.71Z"/><path class="cls-1" d="M106,293.2a20.25,20.25,0,0,1-18.39,18.39A20.25,20.25,0,0,1,106,293.2Z"/><path class="cls-1" d="M109.53,293.2a20.24,20.24,0,0,1,18.39,18.39A20.25,20.25,0,0,1,109.53,293.2Z"/><path class="cls-1" d="M171.74,271.32a20.24,20.24,0,0,1-18.38,18.39A20.24,20.24,0,0,1,171.74,271.32Z"/><path class="cls-1" d="M149.87,289.71a20.24,20.24,0,0,1-18.39-18.39A20.24,20.24,0,0,1,149.87,289.71Z"/><path class="cls-1" d="M149.87,293.2a20.26,20.26,0,0,1-18.39,18.39A20.24,20.24,0,0,1,149.87,293.2Z"/><path class="cls-1" d="M153.36,293.2a20.23,20.23,0,0,1,18.38,18.39A20.25,20.25,0,0,1,153.36,293.2Z"/><path class="cls-1" d="M215.57,271.32a20.24,20.24,0,0,1-18.38,18.39A20.23,20.23,0,0,1,215.57,271.32Z"/><path class="cls-1" d="M193.69,289.71a20.24,20.24,0,0,1-18.38-18.39A20.24,20.24,0,0,1,193.69,289.71Z"/><path class="cls-1" d="M193.69,293.2a20.24,20.24,0,0,1-18.38,18.39A20.24,20.24,0,0,1,193.69,293.2Z"/><path class="cls-1" d="M197.19,293.2a20.24,20.24,0,0,1,18.38,18.39A20.24,20.24,0,0,1,197.19,293.2Z"/><path class="cls-1" d="M259.4,271.32A20.24,20.24,0,0,1,241,289.71,20.24,20.24,0,0,1,259.4,271.32Z"/><path class="cls-1" d="M237.52,289.71a20.25,20.25,0,0,1-18.39-18.39A20.24,20.24,0,0,1,237.52,289.71Z"/><path class="cls-1" d="M237.52,293.2a20.25,20.25,0,0,1-18.39,18.39A20.25,20.25,0,0,1,237.52,293.2Z"/><path class="cls-1" d="M241,293.2a20.24,20.24,0,0,1,18.39,18.39A20.25,20.25,0,0,1,241,293.2Z"/><path class="cls-1" d="M303.22,271.32a20.23,20.23,0,0,1-18.38,18.39A20.24,20.24,0,0,1,303.22,271.32Z"/><path class="cls-1" d="M281.35,289.71A20.24,20.24,0,0,1,263,271.32,20.24,20.24,0,0,1,281.35,289.71Z"/><path class="cls-1" d="M281.35,293.2A20.25,20.25,0,0,1,263,311.59,20.24,20.24,0,0,1,281.35,293.2Z"/><path class="cls-1" d="M284.84,293.2a20.23,20.23,0,0,1,18.38,18.39A20.25,20.25,0,0,1,284.84,293.2Z"/><path class="cls-1" d="M347.05,271.32a20.24,20.24,0,0,1-18.38,18.39A20.24,20.24,0,0,1,347.05,271.32Z"/><path class="cls-1" d="M325.17,289.71a20.24,20.24,0,0,1-18.38-18.39A20.23,20.23,0,0,1,325.17,289.71Z"/><path class="cls-1" d="M325.17,293.2a20.24,20.24,0,0,1-18.38,18.39A20.24,20.24,0,0,1,325.17,293.2Z"/><path class="cls-1" d="M328.67,293.2a20.24,20.24,0,0,1,18.38,18.39A20.24,20.24,0,0,1,328.67,293.2Z"/><path class="cls-1" d="M390.88,271.32a20.24,20.24,0,0,1-18.39,18.39A20.24,20.24,0,0,1,390.88,271.32Z"/><path class="cls-1" d="M369,289.71a20.23,20.23,0,0,1-18.38-18.39A20.24,20.24,0,0,1,369,289.71Z"/><path class="cls-1" d="M369,293.2a20.25,20.25,0,0,1-18.38,18.39A20.23,20.23,0,0,1,369,293.2Z"/><path class="cls-1" d="M372.49,293.2a20.24,20.24,0,0,1,18.39,18.39A20.25,20.25,0,0,1,372.49,293.2Z"/><path class="cls-1" d="M434.71,271.32a20.25,20.25,0,0,1-18.39,18.39A20.24,20.24,0,0,1,434.71,271.32Z"/><path class="cls-1" d="M412.83,289.71a20.24,20.24,0,0,1-18.39-18.39A20.24,20.24,0,0,1,412.83,289.71Z"/><path class="cls-1" d="M412.83,293.2a20.25,20.25,0,0,1-18.39,18.39A20.24,20.24,0,0,1,412.83,293.2Z"/><path class="cls-1" d="M416.32,293.2a20.25,20.25,0,0,1,18.39,18.39A20.25,20.25,0,0,1,416.32,293.2Z"/><path class="cls-1" d="M478.53,271.32a20.24,20.24,0,0,1-18.38,18.39A20.24,20.24,0,0,1,478.53,271.32Z"/><path class="cls-1" d="M456.66,289.71a20.24,20.24,0,0,1-18.39-18.39A20.25,20.25,0,0,1,456.66,289.71Z"/><path class="cls-1" d="M456.66,293.2a20.26,20.26,0,0,1-18.39,18.39A20.24,20.24,0,0,1,456.66,293.2Z"/><path class="cls-1" d="M460.15,293.2a20.24,20.24,0,0,1,18.38,18.39A20.25,20.25,0,0,1,460.15,293.2Z"/><path class="cls-1" d="M522.36,271.32A20.24,20.24,0,0,1,504,289.71,20.25,20.25,0,0,1,522.36,271.32Z"/><path class="cls-1" d="M500.48,289.71a20.24,20.24,0,0,1-18.38-18.39A20.24,20.24,0,0,1,500.48,289.71Z"/><path class="cls-1" d="M500.48,293.2a20.25,20.25,0,0,1-18.38,18.39A20.23,20.23,0,0,1,500.48,293.2Z"/><path class="cls-1" d="M504,293.2a20.24,20.24,0,0,1,18.39,18.39A20.26,20.26,0,0,1,504,293.2Z"/><path class="cls-1" d="M566.19,271.32a20.25,20.25,0,0,1-18.39,18.39A20.24,20.24,0,0,1,566.19,271.32Z"/><path class="cls-1" d="M544.31,289.71a20.24,20.24,0,0,1-18.39-18.39A20.24,20.24,0,0,1,544.31,289.71Z"/><path class="cls-1" d="M544.31,293.2a20.25,20.25,0,0,1-18.39,18.39A20.24,20.24,0,0,1,544.31,293.2Z"/><path class="cls-1" d="M547.8,293.2a20.25,20.25,0,0,1,18.39,18.39A20.25,20.25,0,0,1,547.8,293.2Z"/><path class="cls-1" d="M610,271.32a20.24,20.24,0,0,1-18.38,18.39A20.24,20.24,0,0,1,610,271.32Z"/><path class="cls-1" d="M588.14,289.71a20.24,20.24,0,0,1-18.39-18.39A20.25,20.25,0,0,1,588.14,289.71Z"/><path class="cls-1" d="M588.14,293.2a20.26,20.26,0,0,1-18.39,18.39A20.24,20.24,0,0,1,588.14,293.2Z"/><path class="cls-1" d="M591.63,293.2A20.24,20.24,0,0,1,610,311.59,20.25,20.25,0,0,1,591.63,293.2Z"/><path class="cls-1" d="M653.84,271.32a20.24,20.24,0,0,1-18.39,18.39A20.25,20.25,0,0,1,653.84,271.32Z"/><path class="cls-1" d="M632,289.71a20.24,20.24,0,0,1-18.38-18.39A20.24,20.24,0,0,1,632,289.71Z"/><path class="cls-1" d="M632,293.2a20.25,20.25,0,0,1-18.38,18.39A20.24,20.24,0,0,1,632,293.2Z"/><path class="cls-1" d="M635.45,293.2a20.24,20.24,0,0,1,18.39,18.39A20.26,20.26,0,0,1,635.45,293.2Z"/><path class="cls-1" d="M697.67,271.32a20.25,20.25,0,0,1-18.39,18.39A20.24,20.24,0,0,1,697.67,271.32Z"/><path class="cls-1" d="M675.79,289.71a20.25,20.25,0,0,1-18.39-18.39A20.24,20.24,0,0,1,675.79,289.71Z"/><path class="cls-1" d="M675.79,293.2a20.25,20.25,0,0,1-18.39,18.39A20.25,20.25,0,0,1,675.79,293.2Z"/><path class="cls-1" d="M679.28,293.2a20.24,20.24,0,0,1,18.39,18.39A20.25,20.25,0,0,1,679.28,293.2Z"/><path class="cls-1" d="M40.26,316.54a20.24,20.24,0,0,1-18.38,18.39A20.24,20.24,0,0,1,40.26,316.54Z"/><path class="cls-1" d="M18.39,334.93A20.24,20.24,0,0,1,0,316.54,20.25,20.25,0,0,1,18.39,334.93Z"/><path class="cls-1" d="M18.39,338.42A20.26,20.26,0,0,1,0,356.81,20.24,20.24,0,0,1,18.39,338.42Z"/><path class="cls-1" d="M21.88,338.42a20.24,20.24,0,0,1,18.38,18.39A20.25,20.25,0,0,1,21.88,338.42Z"/><path class="cls-1" d="M84.09,316.54A20.24,20.24,0,0,1,65.7,334.93,20.25,20.25,0,0,1,84.09,316.54Z"/><path class="cls-1" d="M62.21,334.93a20.24,20.24,0,0,1-18.38-18.39A20.24,20.24,0,0,1,62.21,334.93Z"/><path class="cls-1" d="M62.21,338.42a20.25,20.25,0,0,1-18.38,18.39A20.24,20.24,0,0,1,62.21,338.42Z"/><path class="cls-1" d="M65.7,338.42a20.24,20.24,0,0,1,18.39,18.39A20.26,20.26,0,0,1,65.7,338.42Z"/><path class="cls-1" d="M127.92,316.54a20.24,20.24,0,0,1-18.39,18.39A20.24,20.24,0,0,1,127.92,316.54Z"/><path class="cls-1" d="M106,334.93a20.25,20.25,0,0,1-18.39-18.39A20.24,20.24,0,0,1,106,334.93Z"/><path class="cls-1" d="M106,338.42a20.25,20.25,0,0,1-18.39,18.39A20.25,20.25,0,0,1,106,338.42Z"/><path class="cls-1" d="M109.53,338.42a20.24,20.24,0,0,1,18.39,18.39A20.25,20.25,0,0,1,109.53,338.42Z"/><path class="cls-1" d="M171.74,316.54a20.24,20.24,0,0,1-18.38,18.39A20.24,20.24,0,0,1,171.74,316.54Z"/><path class="cls-1" d="M149.87,334.93a20.24,20.24,0,0,1-18.39-18.39A20.24,20.24,0,0,1,149.87,334.93Z"/><path class="cls-1" d="M149.87,338.42a20.26,20.26,0,0,1-18.39,18.39A20.24,20.24,0,0,1,149.87,338.42Z"/><path class="cls-1" d="M153.36,338.42a20.23,20.23,0,0,1,18.38,18.39A20.25,20.25,0,0,1,153.36,338.42Z"/><path class="cls-1" d="M215.57,316.54a20.24,20.24,0,0,1-18.38,18.39A20.23,20.23,0,0,1,215.57,316.54Z"/><path class="cls-1" d="M193.69,334.93a20.24,20.24,0,0,1-18.38-18.39A20.24,20.24,0,0,1,193.69,334.93Z"/><path class="cls-1" d="M193.69,338.42a20.24,20.24,0,0,1-18.38,18.39A20.24,20.24,0,0,1,193.69,338.42Z"/><path class="cls-1" d="M197.19,338.42a20.24,20.24,0,0,1,18.38,18.39A20.24,20.24,0,0,1,197.19,338.42Z"/><path class="cls-1" d="M259.4,316.54A20.24,20.24,0,0,1,241,334.93,20.24,20.24,0,0,1,259.4,316.54Z"/><path class="cls-1" d="M237.52,334.93a20.25,20.25,0,0,1-18.39-18.39A20.24,20.24,0,0,1,237.52,334.93Z"/><path class="cls-1" d="M237.52,338.42a20.25,20.25,0,0,1-18.39,18.39A20.25,20.25,0,0,1,237.52,338.42Z"/><path class="cls-1" d="M241,338.42a20.24,20.24,0,0,1,18.39,18.39A20.25,20.25,0,0,1,241,338.42Z"/><path class="cls-1" d="M303.22,316.54a20.23,20.23,0,0,1-18.38,18.39A20.24,20.24,0,0,1,303.22,316.54Z"/><path class="cls-1" d="M281.35,334.93A20.24,20.24,0,0,1,263,316.54,20.24,20.24,0,0,1,281.35,334.93Z"/><path class="cls-1" d="M281.35,338.42A20.25,20.25,0,0,1,263,356.81,20.24,20.24,0,0,1,281.35,338.42Z"/><path class="cls-1" d="M284.84,338.42a20.23,20.23,0,0,1,18.38,18.39A20.25,20.25,0,0,1,284.84,338.42Z"/><path class="cls-1" d="M347.05,316.54a20.24,20.24,0,0,1-18.38,18.39A20.24,20.24,0,0,1,347.05,316.54Z"/><path class="cls-1" d="M325.17,334.93a20.24,20.24,0,0,1-18.38-18.39A20.23,20.23,0,0,1,325.17,334.93Z"/><path class="cls-1" d="M325.17,338.42a20.24,20.24,0,0,1-18.38,18.39A20.24,20.24,0,0,1,325.17,338.42Z"/><path class="cls-1" d="M328.67,338.42a20.24,20.24,0,0,1,18.38,18.39A20.24,20.24,0,0,1,328.67,338.42Z"/><path class="cls-1" d="M390.88,316.54a20.24,20.24,0,0,1-18.39,18.39A20.24,20.24,0,0,1,390.88,316.54Z"/><path class="cls-1" d="M369,334.93a20.23,20.23,0,0,1-18.38-18.39A20.24,20.24,0,0,1,369,334.93Z"/><path class="cls-1" d="M369,338.42a20.25,20.25,0,0,1-18.38,18.39A20.23,20.23,0,0,1,369,338.42Z"/><path class="cls-1" d="M372.49,338.42a20.24,20.24,0,0,1,18.39,18.39A20.25,20.25,0,0,1,372.49,338.42Z"/><path class="cls-1" d="M434.71,316.54a20.25,20.25,0,0,1-18.39,18.39A20.24,20.24,0,0,1,434.71,316.54Z"/><path class="cls-1" d="M412.83,334.93a20.24,20.24,0,0,1-18.39-18.39A20.24,20.24,0,0,1,412.83,334.93Z"/><path class="cls-1" d="M412.83,338.42a20.25,20.25,0,0,1-18.39,18.39A20.24,20.24,0,0,1,412.83,338.42Z"/><path class="cls-1" d="M416.32,338.42a20.25,20.25,0,0,1,18.39,18.39A20.25,20.25,0,0,1,416.32,338.42Z"/><path class="cls-1" d="M478.53,316.54a20.24,20.24,0,0,1-18.38,18.39A20.24,20.24,0,0,1,478.53,316.54Z"/><path class="cls-1" d="M456.66,334.93a20.24,20.24,0,0,1-18.39-18.39A20.25,20.25,0,0,1,456.66,334.93Z"/><path class="cls-1" d="M456.66,338.42a20.26,20.26,0,0,1-18.39,18.39A20.24,20.24,0,0,1,456.66,338.42Z"/><path class="cls-1" d="M460.15,338.42a20.24,20.24,0,0,1,18.38,18.39A20.25,20.25,0,0,1,460.15,338.42Z"/><path class="cls-1" d="M522.36,316.54A20.24,20.24,0,0,1,504,334.93,20.25,20.25,0,0,1,522.36,316.54Z"/><path class="cls-1" d="M500.48,334.93a20.24,20.24,0,0,1-18.38-18.39A20.24,20.24,0,0,1,500.48,334.93Z"/><path class="cls-1" d="M500.48,338.42a20.25,20.25,0,0,1-18.38,18.39A20.23,20.23,0,0,1,500.48,338.42Z"/><path class="cls-1" d="M504,338.42a20.24,20.24,0,0,1,18.39,18.39A20.26,20.26,0,0,1,504,338.42Z"/><path class="cls-1" d="M566.19,316.54a20.25,20.25,0,0,1-18.39,18.39A20.24,20.24,0,0,1,566.19,316.54Z"/><path class="cls-1" d="M544.31,334.93a20.24,20.24,0,0,1-18.39-18.39A20.24,20.24,0,0,1,544.31,334.93Z"/><path class="cls-1" d="M544.31,338.42a20.25,20.25,0,0,1-18.39,18.39A20.24,20.24,0,0,1,544.31,338.42Z"/><path class="cls-1" d="M547.8,338.42a20.25,20.25,0,0,1,18.39,18.39A20.25,20.25,0,0,1,547.8,338.42Z"/><path class="cls-1" d="M610,316.54a20.24,20.24,0,0,1-18.38,18.39A20.24,20.24,0,0,1,610,316.54Z"/><path class="cls-1" d="M588.14,334.93a20.24,20.24,0,0,1-18.39-18.39A20.25,20.25,0,0,1,588.14,334.93Z"/><path class="cls-1" d="M588.14,338.42a20.26,20.26,0,0,1-18.39,18.39A20.24,20.24,0,0,1,588.14,338.42Z"/><path class="cls-1" d="M591.63,338.42A20.24,20.24,0,0,1,610,356.81,20.25,20.25,0,0,1,591.63,338.42Z"/><path class="cls-1" d="M653.84,316.54a20.24,20.24,0,0,1-18.39,18.39A20.25,20.25,0,0,1,653.84,316.54Z"/><path class="cls-1" d="M632,334.93a20.24,20.24,0,0,1-18.38-18.39A20.24,20.24,0,0,1,632,334.93Z"/><path class="cls-1" d="M632,338.42a20.25,20.25,0,0,1-18.38,18.39A20.24,20.24,0,0,1,632,338.42Z"/><path class="cls-1" d="M635.45,338.42a20.24,20.24,0,0,1,18.39,18.39A20.26,20.26,0,0,1,635.45,338.42Z"/><path class="cls-1" d="M697.67,316.54a20.25,20.25,0,0,1-18.39,18.39A20.24,20.24,0,0,1,697.67,316.54Z"/><path class="cls-1" d="M675.79,334.93a20.25,20.25,0,0,1-18.39-18.39A20.24,20.24,0,0,1,675.79,334.93Z"/><path class="cls-1" d="M675.79,338.42a20.25,20.25,0,0,1-18.39,18.39A20.25,20.25,0,0,1,675.79,338.42Z"/><path class="cls-1" d="M679.28,338.42a20.24,20.24,0,0,1,18.39,18.39A20.25,20.25,0,0,1,679.28,338.42Z"/><path class="cls-1" d="M40.26,361.76a20.24,20.24,0,0,1-18.38,18.39A20.25,20.25,0,0,1,40.26,361.76Z"/><path class="cls-1" d="M18.39,380.15A20.24,20.24,0,0,1,0,361.76,20.26,20.26,0,0,1,18.39,380.15Z"/><path class="cls-1" d="M18.39,383.64A20.26,20.26,0,0,1,0,402,20.24,20.24,0,0,1,18.39,383.64Z"/><path class="cls-1" d="M21.88,383.64A20.24,20.24,0,0,1,40.26,402,20.25,20.25,0,0,1,21.88,383.64Z"/><path class="cls-1" d="M84.09,361.76A20.24,20.24,0,0,1,65.7,380.15,20.26,20.26,0,0,1,84.09,361.76Z"/><path class="cls-1" d="M62.21,380.15a20.24,20.24,0,0,1-18.38-18.39A20.25,20.25,0,0,1,62.21,380.15Z"/><path class="cls-1" d="M62.21,383.64A20.25,20.25,0,0,1,43.83,402,20.24,20.24,0,0,1,62.21,383.64Z"/><path class="cls-1" d="M65.7,383.64A20.24,20.24,0,0,1,84.09,402,20.26,20.26,0,0,1,65.7,383.64Z"/><path class="cls-1" d="M127.92,361.76a20.24,20.24,0,0,1-18.39,18.39A20.25,20.25,0,0,1,127.92,361.76Z"/><path class="cls-1" d="M106,380.15a20.25,20.25,0,0,1-18.39-18.39A20.25,20.25,0,0,1,106,380.15Z"/><path class="cls-1" d="M106,383.64A20.25,20.25,0,0,1,87.65,402,20.25,20.25,0,0,1,106,383.64Z"/><path class="cls-1" d="M109.53,383.64A20.24,20.24,0,0,1,127.92,402,20.25,20.25,0,0,1,109.53,383.64Z"/><path class="cls-1" d="M171.74,361.76a20.24,20.24,0,0,1-18.38,18.39A20.25,20.25,0,0,1,171.74,361.76Z"/><path class="cls-1" d="M149.87,380.15a20.24,20.24,0,0,1-18.39-18.39A20.25,20.25,0,0,1,149.87,380.15Z"/><path class="cls-1" d="M149.87,383.64A20.26,20.26,0,0,1,131.48,402,20.24,20.24,0,0,1,149.87,383.64Z"/><path class="cls-1" d="M153.36,383.64A20.23,20.23,0,0,1,171.74,402,20.25,20.25,0,0,1,153.36,383.64Z"/><path class="cls-1" d="M215.57,361.76a20.24,20.24,0,0,1-18.38,18.39A20.24,20.24,0,0,1,215.57,361.76Z"/><path class="cls-1" d="M193.69,380.15a20.24,20.24,0,0,1-18.38-18.39A20.25,20.25,0,0,1,193.69,380.15Z"/><path class="cls-1" d="M193.69,383.64A20.24,20.24,0,0,1,175.31,402,20.24,20.24,0,0,1,193.69,383.64Z"/><path class="cls-1" d="M197.19,383.64A20.24,20.24,0,0,1,215.57,402,20.24,20.24,0,0,1,197.19,383.64Z"/><path class="cls-1" d="M259.4,361.76A20.24,20.24,0,0,1,241,380.15,20.25,20.25,0,0,1,259.4,361.76Z"/><path class="cls-1" d="M237.52,380.15a20.25,20.25,0,0,1-18.39-18.39A20.25,20.25,0,0,1,237.52,380.15Z"/><path class="cls-1" d="M237.52,383.64A20.25,20.25,0,0,1,219.13,402,20.25,20.25,0,0,1,237.52,383.64Z"/><path class="cls-1" d="M241,383.64A20.24,20.24,0,0,1,259.4,402,20.25,20.25,0,0,1,241,383.64Z"/><path class="cls-1" d="M303.22,361.76a20.23,20.23,0,0,1-18.38,18.39A20.25,20.25,0,0,1,303.22,361.76Z"/><path class="cls-1" d="M281.35,380.15A20.24,20.24,0,0,1,263,361.76,20.25,20.25,0,0,1,281.35,380.15Z"/><path class="cls-1" d="M281.35,383.64A20.25,20.25,0,0,1,263,402,20.24,20.24,0,0,1,281.35,383.64Z"/><path class="cls-1" d="M284.84,383.64A20.23,20.23,0,0,1,303.22,402,20.25,20.25,0,0,1,284.84,383.64Z"/><path class="cls-1" d="M347.05,361.76a20.24,20.24,0,0,1-18.38,18.39A20.25,20.25,0,0,1,347.05,361.76Z"/><path class="cls-1" d="M325.17,380.15a20.24,20.24,0,0,1-18.38-18.39A20.24,20.24,0,0,1,325.17,380.15Z"/><path class="cls-1" d="M325.17,383.64A20.24,20.24,0,0,1,306.79,402,20.24,20.24,0,0,1,325.17,383.64Z"/><path class="cls-1" d="M328.67,383.64A20.24,20.24,0,0,1,347.05,402,20.24,20.24,0,0,1,328.67,383.64Z"/><path class="cls-1" d="M390.88,361.76a20.24,20.24,0,0,1-18.39,18.39A20.25,20.25,0,0,1,390.88,361.76Z"/><path class="cls-1" d="M369,380.15a20.23,20.23,0,0,1-18.38-18.39A20.25,20.25,0,0,1,369,380.15Z"/><path class="cls-1" d="M369,383.64A20.25,20.25,0,0,1,350.62,402,20.23,20.23,0,0,1,369,383.64Z"/><path class="cls-1" d="M372.49,383.64A20.24,20.24,0,0,1,390.88,402,20.25,20.25,0,0,1,372.49,383.64Z"/><path class="cls-1" d="M434.71,361.76a20.25,20.25,0,0,1-18.39,18.39A20.25,20.25,0,0,1,434.71,361.76Z"/><path class="cls-1" d="M412.83,380.15a20.24,20.24,0,0,1-18.39-18.39A20.25,20.25,0,0,1,412.83,380.15Z"/><path class="cls-1" d="M412.83,383.64A20.25,20.25,0,0,1,394.44,402,20.24,20.24,0,0,1,412.83,383.64Z"/><path class="cls-1" d="M416.32,383.64A20.25,20.25,0,0,1,434.71,402,20.25,20.25,0,0,1,416.32,383.64Z"/><path class="cls-1" d="M478.53,361.76a20.24,20.24,0,0,1-18.38,18.39A20.25,20.25,0,0,1,478.53,361.76Z"/><path class="cls-1" d="M456.66,380.15a20.24,20.24,0,0,1-18.39-18.39A20.26,20.26,0,0,1,456.66,380.15Z"/><path class="cls-1" d="M456.66,383.64A20.26,20.26,0,0,1,438.27,402,20.24,20.24,0,0,1,456.66,383.64Z"/><path class="cls-1" d="M460.15,383.64A20.24,20.24,0,0,1,478.53,402,20.25,20.25,0,0,1,460.15,383.64Z"/><path class="cls-1" d="M522.36,361.76A20.24,20.24,0,0,1,504,380.15,20.26,20.26,0,0,1,522.36,361.76Z"/><path class="cls-1" d="M500.48,380.15a20.24,20.24,0,0,1-18.38-18.39A20.25,20.25,0,0,1,500.48,380.15Z"/><path class="cls-1" d="M500.48,383.64A20.25,20.25,0,0,1,482.1,402,20.23,20.23,0,0,1,500.48,383.64Z"/><path class="cls-1" d="M504,383.64A20.24,20.24,0,0,1,522.36,402,20.26,20.26,0,0,1,504,383.64Z"/><path class="cls-1" d="M566.19,361.76a20.25,20.25,0,0,1-18.39,18.39A20.25,20.25,0,0,1,566.19,361.76Z"/><path class="cls-1" d="M544.31,380.15a20.24,20.24,0,0,1-18.39-18.39A20.25,20.25,0,0,1,544.31,380.15Z"/><path class="cls-1" d="M544.31,383.64A20.25,20.25,0,0,1,525.92,402,20.24,20.24,0,0,1,544.31,383.64Z"/><path class="cls-1" d="M547.8,383.64A20.25,20.25,0,0,1,566.19,402,20.25,20.25,0,0,1,547.8,383.64Z"/><path class="cls-1" d="M610,361.76a20.24,20.24,0,0,1-18.38,18.39A20.25,20.25,0,0,1,610,361.76Z"/><path class="cls-1" d="M588.14,380.15a20.24,20.24,0,0,1-18.39-18.39A20.26,20.26,0,0,1,588.14,380.15Z"/><path class="cls-1" d="M588.14,383.64A20.26,20.26,0,0,1,569.75,402,20.24,20.24,0,0,1,588.14,383.64Z"/><path class="cls-1" d="M591.63,383.64A20.24,20.24,0,0,1,610,402,20.25,20.25,0,0,1,591.63,383.64Z"/><path class="cls-1" d="M653.84,361.76a20.24,20.24,0,0,1-18.39,18.39A20.26,20.26,0,0,1,653.84,361.76Z"/><path class="cls-1" d="M632,380.15a20.24,20.24,0,0,1-18.38-18.39A20.25,20.25,0,0,1,632,380.15Z"/><path class="cls-1" d="M632,383.64A20.25,20.25,0,0,1,613.58,402,20.24,20.24,0,0,1,632,383.64Z"/><path class="cls-1" d="M635.45,383.64A20.24,20.24,0,0,1,653.84,402,20.26,20.26,0,0,1,635.45,383.64Z"/><path class="cls-1" d="M697.67,361.76a20.25,20.25,0,0,1-18.39,18.39A20.25,20.25,0,0,1,697.67,361.76Z"/><path class="cls-1" d="M675.79,380.15a20.25,20.25,0,0,1-18.39-18.39A20.25,20.25,0,0,1,675.79,380.15Z"/><path class="cls-1" d="M675.79,383.64A20.25,20.25,0,0,1,657.4,402,20.25,20.25,0,0,1,675.79,383.64Z"/><path class="cls-1" d="M679.28,383.64A20.24,20.24,0,0,1,697.67,402,20.25,20.25,0,0,1,679.28,383.64Z"/><path class="cls-1" d="M40.26,407a20.24,20.24,0,0,1-18.38,18.39A20.25,20.25,0,0,1,40.26,407Z"/><path class="cls-1" d="M18.39,425.37A20.24,20.24,0,0,1,0,407,20.26,20.26,0,0,1,18.39,425.37Z"/><path class="cls-1" d="M18.39,428.86A20.25,20.25,0,0,1,0,447.25,20.24,20.24,0,0,1,18.39,428.86Z"/><path class="cls-1" d="M21.88,428.86a20.24,20.24,0,0,1,18.38,18.39A20.25,20.25,0,0,1,21.88,428.86Z"/><path class="cls-1" d="M84.09,407A20.24,20.24,0,0,1,65.7,425.37,20.26,20.26,0,0,1,84.09,407Z"/><path class="cls-1" d="M62.21,425.37A20.24,20.24,0,0,1,43.83,407,20.25,20.25,0,0,1,62.21,425.37Z"/><path class="cls-1" d="M62.21,428.86a20.24,20.24,0,0,1-18.38,18.39A20.24,20.24,0,0,1,62.21,428.86Z"/><path class="cls-1" d="M65.7,428.86a20.24,20.24,0,0,1,18.39,18.39A20.26,20.26,0,0,1,65.7,428.86Z"/><path class="cls-1" d="M127.92,407a20.24,20.24,0,0,1-18.39,18.39A20.25,20.25,0,0,1,127.92,407Z"/><path class="cls-1" d="M106,425.37A20.25,20.25,0,0,1,87.65,407,20.25,20.25,0,0,1,106,425.37Z"/><path class="cls-1" d="M106,428.86a20.24,20.24,0,0,1-18.39,18.39A20.25,20.25,0,0,1,106,428.86Z"/><path class="cls-1" d="M109.53,428.86a20.24,20.24,0,0,1,18.39,18.39A20.25,20.25,0,0,1,109.53,428.86Z"/><path class="cls-1" d="M171.74,407a20.24,20.24,0,0,1-18.38,18.39A20.25,20.25,0,0,1,171.74,407Z"/><path class="cls-1" d="M149.87,425.37A20.24,20.24,0,0,1,131.48,407,20.25,20.25,0,0,1,149.87,425.37Z"/><path class="cls-1" d="M149.87,428.86a20.25,20.25,0,0,1-18.39,18.39A20.24,20.24,0,0,1,149.87,428.86Z"/><path class="cls-1" d="M153.36,428.86a20.23,20.23,0,0,1,18.38,18.39A20.25,20.25,0,0,1,153.36,428.86Z"/><path class="cls-1" d="M215.57,407a20.24,20.24,0,0,1-18.38,18.39A20.24,20.24,0,0,1,215.57,407Z"/><path class="cls-1" d="M193.69,425.37A20.24,20.24,0,0,1,175.31,407,20.25,20.25,0,0,1,193.69,425.37Z"/><path class="cls-1" d="M193.69,428.86a20.23,20.23,0,0,1-18.38,18.39A20.24,20.24,0,0,1,193.69,428.86Z"/><path class="cls-1" d="M197.19,428.86a20.24,20.24,0,0,1,18.38,18.39A20.24,20.24,0,0,1,197.19,428.86Z"/><path class="cls-1" d="M259.4,407A20.24,20.24,0,0,1,241,425.37,20.25,20.25,0,0,1,259.4,407Z"/><path class="cls-1" d="M237.52,425.37A20.25,20.25,0,0,1,219.13,407,20.25,20.25,0,0,1,237.52,425.37Z"/><path class="cls-1" d="M237.52,428.86a20.24,20.24,0,0,1-18.39,18.39A20.25,20.25,0,0,1,237.52,428.86Z"/><path class="cls-1" d="M241,428.86a20.24,20.24,0,0,1,18.39,18.39A20.25,20.25,0,0,1,241,428.86Z"/><path class="cls-1" d="M303.22,407a20.23,20.23,0,0,1-18.38,18.39A20.25,20.25,0,0,1,303.22,407Z"/><path class="cls-1" d="M281.35,425.37A20.24,20.24,0,0,1,263,407,20.25,20.25,0,0,1,281.35,425.37Z"/><path class="cls-1" d="M281.35,428.86A20.24,20.24,0,0,1,263,447.25,20.24,20.24,0,0,1,281.35,428.86Z"/><path class="cls-1" d="M284.84,428.86a20.23,20.23,0,0,1,18.38,18.39A20.25,20.25,0,0,1,284.84,428.86Z"/><path class="cls-1" d="M347.05,407a20.24,20.24,0,0,1-18.38,18.39A20.25,20.25,0,0,1,347.05,407Z"/><path class="cls-1" d="M325.17,425.37A20.24,20.24,0,0,1,306.79,407,20.24,20.24,0,0,1,325.17,425.37Z"/><path class="cls-1" d="M325.17,428.86a20.23,20.23,0,0,1-18.38,18.39A20.24,20.24,0,0,1,325.17,428.86Z"/><path class="cls-1" d="M328.67,428.86a20.24,20.24,0,0,1,18.38,18.39A20.24,20.24,0,0,1,328.67,428.86Z"/><path class="cls-1" d="M390.88,407a20.24,20.24,0,0,1-18.39,18.39A20.25,20.25,0,0,1,390.88,407Z"/><path class="cls-1" d="M369,425.37A20.23,20.23,0,0,1,350.62,407,20.25,20.25,0,0,1,369,425.37Z"/><path class="cls-1" d="M369,428.86a20.24,20.24,0,0,1-18.38,18.39A20.23,20.23,0,0,1,369,428.86Z"/><path class="cls-1" d="M372.49,428.86a20.24,20.24,0,0,1,18.39,18.39A20.25,20.25,0,0,1,372.49,428.86Z"/><path class="cls-1" d="M434.71,407a20.25,20.25,0,0,1-18.39,18.39A20.25,20.25,0,0,1,434.71,407Z"/><path class="cls-1" d="M412.83,425.37A20.24,20.24,0,0,1,394.44,407,20.25,20.25,0,0,1,412.83,425.37Z"/><path class="cls-1" d="M412.83,428.86a20.24,20.24,0,0,1-18.39,18.39A20.24,20.24,0,0,1,412.83,428.86Z"/><path class="cls-1" d="M416.32,428.86a20.25,20.25,0,0,1,18.39,18.39A20.25,20.25,0,0,1,416.32,428.86Z"/><path class="cls-1" d="M478.53,407a20.24,20.24,0,0,1-18.38,18.39A20.25,20.25,0,0,1,478.53,407Z"/><path class="cls-1" d="M456.66,425.37A20.24,20.24,0,0,1,438.27,407,20.26,20.26,0,0,1,456.66,425.37Z"/><path class="cls-1" d="M456.66,428.86a20.25,20.25,0,0,1-18.39,18.39A20.24,20.24,0,0,1,456.66,428.86Z"/><path class="cls-1" d="M460.15,428.86a20.24,20.24,0,0,1,18.38,18.39A20.25,20.25,0,0,1,460.15,428.86Z"/><path class="cls-1" d="M522.36,407A20.24,20.24,0,0,1,504,425.37,20.26,20.26,0,0,1,522.36,407Z"/><path class="cls-1" d="M500.48,425.37A20.24,20.24,0,0,1,482.1,407,20.25,20.25,0,0,1,500.48,425.37Z"/><path class="cls-1" d="M500.48,428.86a20.24,20.24,0,0,1-18.38,18.39A20.23,20.23,0,0,1,500.48,428.86Z"/><path class="cls-1" d="M504,428.86a20.24,20.24,0,0,1,18.39,18.39A20.26,20.26,0,0,1,504,428.86Z"/><path class="cls-1" d="M566.19,407a20.25,20.25,0,0,1-18.39,18.39A20.25,20.25,0,0,1,566.19,407Z"/><path class="cls-1" d="M544.31,425.37A20.24,20.24,0,0,1,525.92,407,20.25,20.25,0,0,1,544.31,425.37Z"/><path class="cls-1" d="M544.31,428.86a20.24,20.24,0,0,1-18.39,18.39A20.24,20.24,0,0,1,544.31,428.86Z"/><path class="cls-1" d="M547.8,428.86a20.25,20.25,0,0,1,18.39,18.39A20.25,20.25,0,0,1,547.8,428.86Z"/><path class="cls-1" d="M610,407a20.24,20.24,0,0,1-18.38,18.39A20.25,20.25,0,0,1,610,407Z"/><path class="cls-1" d="M588.14,425.37A20.24,20.24,0,0,1,569.75,407,20.26,20.26,0,0,1,588.14,425.37Z"/><path class="cls-1" d="M588.14,428.86a20.25,20.25,0,0,1-18.39,18.39A20.24,20.24,0,0,1,588.14,428.86Z"/><path class="cls-1" d="M591.63,428.86A20.24,20.24,0,0,1,610,447.25,20.25,20.25,0,0,1,591.63,428.86Z"/><path class="cls-1" d="M653.84,407a20.24,20.24,0,0,1-18.39,18.39A20.26,20.26,0,0,1,653.84,407Z"/><path class="cls-1" d="M632,425.37A20.24,20.24,0,0,1,613.58,407,20.25,20.25,0,0,1,632,425.37Z"/><path class="cls-1" d="M632,428.86a20.24,20.24,0,0,1-18.38,18.39A20.24,20.24,0,0,1,632,428.86Z"/><path class="cls-1" d="M635.45,428.86a20.24,20.24,0,0,1,18.39,18.39A20.26,20.26,0,0,1,635.45,428.86Z"/><path class="cls-1" d="M697.67,407a20.25,20.25,0,0,1-18.39,18.39A20.25,20.25,0,0,1,697.67,407Z"/><path class="cls-1" d="M675.79,425.37A20.25,20.25,0,0,1,657.4,407,20.25,20.25,0,0,1,675.79,425.37Z"/><path class="cls-1" d="M675.79,428.86a20.24,20.24,0,0,1-18.39,18.39A20.25,20.25,0,0,1,675.79,428.86Z"/><path class="cls-1" d="M679.28,428.86a20.24,20.24,0,0,1,18.39,18.39A20.25,20.25,0,0,1,679.28,428.86Z"/><path class="cls-1" d="M40.26,452.2a20.24,20.24,0,0,1-18.38,18.39A20.25,20.25,0,0,1,40.26,452.2Z"/><path class="cls-1" d="M18.39,470.59A20.24,20.24,0,0,1,0,452.2,20.26,20.26,0,0,1,18.39,470.59Z"/><path class="cls-1" d="M18.39,474.08A20.25,20.25,0,0,1,0,492.47,20.24,20.24,0,0,1,18.39,474.08Z"/><path class="cls-1" d="M21.88,474.08a20.24,20.24,0,0,1,18.38,18.39A20.24,20.24,0,0,1,21.88,474.08Z"/><path class="cls-1" d="M84.09,452.2A20.24,20.24,0,0,1,65.7,470.59,20.26,20.26,0,0,1,84.09,452.2Z"/><path class="cls-1" d="M62.21,470.59A20.24,20.24,0,0,1,43.83,452.2,20.25,20.25,0,0,1,62.21,470.59Z"/><path class="cls-1" d="M62.21,474.08a20.24,20.24,0,0,1-18.38,18.39A20.24,20.24,0,0,1,62.21,474.08Z"/><path class="cls-1" d="M65.7,474.08a20.24,20.24,0,0,1,18.39,18.39A20.25,20.25,0,0,1,65.7,474.08Z"/><path class="cls-1" d="M127.92,452.2a20.24,20.24,0,0,1-18.39,18.39A20.25,20.25,0,0,1,127.92,452.2Z"/><path class="cls-1" d="M106,470.59A20.25,20.25,0,0,1,87.65,452.2,20.25,20.25,0,0,1,106,470.59Z"/><path class="cls-1" d="M106,474.08a20.24,20.24,0,0,1-18.39,18.39A20.25,20.25,0,0,1,106,474.08Z"/><path class="cls-1" d="M109.53,474.08a20.24,20.24,0,0,1,18.39,18.39A20.24,20.24,0,0,1,109.53,474.08Z"/><path class="cls-1" d="M171.74,452.2a20.24,20.24,0,0,1-18.38,18.39A20.25,20.25,0,0,1,171.74,452.2Z"/><path class="cls-1" d="M149.87,470.59a20.24,20.24,0,0,1-18.39-18.39A20.25,20.25,0,0,1,149.87,470.59Z"/><path class="cls-1" d="M149.87,474.08a20.25,20.25,0,0,1-18.39,18.39A20.24,20.24,0,0,1,149.87,474.08Z"/><path class="cls-1" d="M153.36,474.08a20.23,20.23,0,0,1,18.38,18.39A20.24,20.24,0,0,1,153.36,474.08Z"/><path class="cls-1" d="M215.57,452.2a20.24,20.24,0,0,1-18.38,18.39A20.24,20.24,0,0,1,215.57,452.2Z"/><path class="cls-1" d="M193.69,470.59a20.24,20.24,0,0,1-18.38-18.39A20.25,20.25,0,0,1,193.69,470.59Z"/><path class="cls-1" d="M193.69,474.08a20.23,20.23,0,0,1-18.38,18.39A20.24,20.24,0,0,1,193.69,474.08Z"/><path class="cls-1" d="M197.19,474.08a20.24,20.24,0,0,1,18.38,18.39A20.23,20.23,0,0,1,197.19,474.08Z"/><path class="cls-1" d="M259.4,452.2A20.24,20.24,0,0,1,241,470.59,20.25,20.25,0,0,1,259.4,452.2Z"/><path class="cls-1" d="M237.52,470.59a20.25,20.25,0,0,1-18.39-18.39A20.25,20.25,0,0,1,237.52,470.59Z"/><path class="cls-1" d="M237.52,474.08a20.24,20.24,0,0,1-18.39,18.39A20.25,20.25,0,0,1,237.52,474.08Z"/><path class="cls-1" d="M241,474.08a20.24,20.24,0,0,1,18.39,18.39A20.24,20.24,0,0,1,241,474.08Z"/><path class="cls-1" d="M303.22,452.2a20.23,20.23,0,0,1-18.38,18.39A20.25,20.25,0,0,1,303.22,452.2Z"/><path class="cls-1" d="M281.35,470.59A20.24,20.24,0,0,1,263,452.2,20.25,20.25,0,0,1,281.35,470.59Z"/><path class="cls-1" d="M281.35,474.08A20.24,20.24,0,0,1,263,492.47,20.24,20.24,0,0,1,281.35,474.08Z"/><path class="cls-1" d="M284.84,474.08a20.23,20.23,0,0,1,18.38,18.39A20.24,20.24,0,0,1,284.84,474.08Z"/><path class="cls-1" d="M347.05,452.2a20.24,20.24,0,0,1-18.38,18.39A20.25,20.25,0,0,1,347.05,452.2Z"/><path class="cls-1" d="M325.17,470.59a20.24,20.24,0,0,1-18.38-18.39A20.24,20.24,0,0,1,325.17,470.59Z"/><path class="cls-1" d="M325.17,474.08a20.23,20.23,0,0,1-18.38,18.39A20.24,20.24,0,0,1,325.17,474.08Z"/><path class="cls-1" d="M328.67,474.08a20.24,20.24,0,0,1,18.38,18.39A20.23,20.23,0,0,1,328.67,474.08Z"/><path class="cls-1" d="M390.88,452.2a20.24,20.24,0,0,1-18.39,18.39A20.25,20.25,0,0,1,390.88,452.2Z"/><path class="cls-1" d="M369,470.59a20.23,20.23,0,0,1-18.38-18.39A20.25,20.25,0,0,1,369,470.59Z"/><path class="cls-1" d="M369,474.08a20.24,20.24,0,0,1-18.38,18.39A20.23,20.23,0,0,1,369,474.08Z"/><path class="cls-1" d="M372.49,474.08a20.24,20.24,0,0,1,18.39,18.39A20.24,20.24,0,0,1,372.49,474.08Z"/><path class="cls-1" d="M434.71,452.2a20.25,20.25,0,0,1-18.39,18.39A20.25,20.25,0,0,1,434.71,452.2Z"/><path class="cls-1" d="M412.83,470.59a20.24,20.24,0,0,1-18.39-18.39A20.25,20.25,0,0,1,412.83,470.59Z"/><path class="cls-1" d="M412.83,474.08a20.24,20.24,0,0,1-18.39,18.39A20.24,20.24,0,0,1,412.83,474.08Z"/><path class="cls-1" d="M416.32,474.08a20.25,20.25,0,0,1,18.39,18.39A20.24,20.24,0,0,1,416.32,474.08Z"/><path class="cls-1" d="M478.53,452.2a20.24,20.24,0,0,1-18.38,18.39A20.25,20.25,0,0,1,478.53,452.2Z"/><path class="cls-1" d="M456.66,470.59a20.24,20.24,0,0,1-18.39-18.39A20.26,20.26,0,0,1,456.66,470.59Z"/><path class="cls-1" d="M456.66,474.08a20.25,20.25,0,0,1-18.39,18.39A20.24,20.24,0,0,1,456.66,474.08Z"/><path class="cls-1" d="M460.15,474.08a20.24,20.24,0,0,1,18.38,18.39A20.24,20.24,0,0,1,460.15,474.08Z"/><path class="cls-1" d="M522.36,452.2A20.24,20.24,0,0,1,504,470.59,20.26,20.26,0,0,1,522.36,452.2Z"/><path class="cls-1" d="M500.48,470.59A20.24,20.24,0,0,1,482.1,452.2,20.25,20.25,0,0,1,500.48,470.59Z"/><path class="cls-1" d="M500.48,474.08a20.24,20.24,0,0,1-18.38,18.39A20.23,20.23,0,0,1,500.48,474.08Z"/><path class="cls-1" d="M504,474.08a20.24,20.24,0,0,1,18.39,18.39A20.25,20.25,0,0,1,504,474.08Z"/><path class="cls-1" d="M566.19,452.2a20.25,20.25,0,0,1-18.39,18.39A20.25,20.25,0,0,1,566.19,452.2Z"/><path class="cls-1" d="M544.31,470.59a20.24,20.24,0,0,1-18.39-18.39A20.25,20.25,0,0,1,544.31,470.59Z"/><path class="cls-1" d="M544.31,474.08a20.24,20.24,0,0,1-18.39,18.39A20.24,20.24,0,0,1,544.31,474.08Z"/><path class="cls-1" d="M547.8,474.08a20.25,20.25,0,0,1,18.39,18.39A20.24,20.24,0,0,1,547.8,474.08Z"/><path class="cls-1" d="M610,452.2a20.24,20.24,0,0,1-18.38,18.39A20.25,20.25,0,0,1,610,452.2Z"/><path class="cls-1" d="M588.14,470.59a20.24,20.24,0,0,1-18.39-18.39A20.26,20.26,0,0,1,588.14,470.59Z"/><path class="cls-1" d="M588.14,474.08a20.25,20.25,0,0,1-18.39,18.39A20.24,20.24,0,0,1,588.14,474.08Z"/><path class="cls-1" d="M591.63,474.08A20.24,20.24,0,0,1,610,492.47,20.24,20.24,0,0,1,591.63,474.08Z"/><path class="cls-1" d="M653.84,452.2a20.24,20.24,0,0,1-18.39,18.39A20.26,20.26,0,0,1,653.84,452.2Z"/><path class="cls-1" d="M632,470.59a20.24,20.24,0,0,1-18.38-18.39A20.25,20.25,0,0,1,632,470.59Z"/><path class="cls-1" d="M632,474.08a20.24,20.24,0,0,1-18.38,18.39A20.24,20.24,0,0,1,632,474.08Z"/><path class="cls-1" d="M635.45,474.08a20.24,20.24,0,0,1,18.39,18.39A20.25,20.25,0,0,1,635.45,474.08Z"/><path class="cls-1" d="M697.67,452.2a20.25,20.25,0,0,1-18.39,18.39A20.25,20.25,0,0,1,697.67,452.2Z"/><path class="cls-1" d="M675.79,470.59A20.25,20.25,0,0,1,657.4,452.2,20.25,20.25,0,0,1,675.79,470.59Z"/><path class="cls-1" d="M675.79,474.08a20.24,20.24,0,0,1-18.39,18.39A20.25,20.25,0,0,1,675.79,474.08Z"/><path class="cls-1" d="M679.28,474.08a20.24,20.24,0,0,1,18.39,18.39A20.24,20.24,0,0,1,679.28,474.08Z"/><path class="cls-1" d="M741.65,0a20.24,20.24,0,0,1-18.38,18.39A20.24,20.24,0,0,1,741.65,0Z"/><path class="cls-1" d="M719.78,18.39A20.25,20.25,0,0,1,701.39,0,20.24,20.24,0,0,1,719.78,18.39Z"/><path class="cls-1" d="M719.78,21.88a20.24,20.24,0,0,1-18.39,18.38A20.24,20.24,0,0,1,719.78,21.88Z"/><path class="cls-1" d="M723.27,21.88a20.23,20.23,0,0,1,18.38,18.38A20.24,20.24,0,0,1,723.27,21.88Z"/><path class="cls-1" d="M741.65,45.22a20.24,20.24,0,0,1-18.38,18.39A20.24,20.24,0,0,1,741.65,45.22Z"/><path class="cls-1" d="M719.78,63.61a20.25,20.25,0,0,1-18.39-18.39A20.24,20.24,0,0,1,719.78,63.61Z"/><path class="cls-1" d="M719.78,67.1a20.24,20.24,0,0,1-18.39,18.38A20.24,20.24,0,0,1,719.78,67.1Z"/><path class="cls-1" d="M723.27,67.1a20.23,20.23,0,0,1,18.38,18.38A20.24,20.24,0,0,1,723.27,67.1Z"/><path class="cls-1" d="M741.65,90.44a20.24,20.24,0,0,1-18.38,18.39A20.24,20.24,0,0,1,741.65,90.44Z"/><path class="cls-1" d="M719.78,108.83a20.25,20.25,0,0,1-18.39-18.39A20.24,20.24,0,0,1,719.78,108.83Z"/><path class="cls-1" d="M719.78,112.32a20.23,20.23,0,0,1-18.39,18.38A20.24,20.24,0,0,1,719.78,112.32Z"/><path class="cls-1" d="M723.27,112.32a20.23,20.23,0,0,1,18.38,18.38A20.24,20.24,0,0,1,723.27,112.32Z"/><path class="cls-1" d="M741.65,135.66a20.23,20.23,0,0,1-18.38,18.39A20.24,20.24,0,0,1,741.65,135.66Z"/><path class="cls-1" d="M719.78,154.05a20.24,20.24,0,0,1-18.39-18.39A20.24,20.24,0,0,1,719.78,154.05Z"/><path class="cls-1" d="M719.78,157.54a20.23,20.23,0,0,1-18.39,18.38A20.24,20.24,0,0,1,719.78,157.54Z"/><path class="cls-1" d="M723.27,157.54a20.23,20.23,0,0,1,18.38,18.38A20.23,20.23,0,0,1,723.27,157.54Z"/><path class="cls-1" d="M741.65,180.88a20.23,20.23,0,0,1-18.38,18.39A20.24,20.24,0,0,1,741.65,180.88Z"/><path class="cls-1" d="M719.78,199.27a20.24,20.24,0,0,1-18.39-18.39A20.24,20.24,0,0,1,719.78,199.27Z"/><path class="cls-1" d="M719.78,202.76a20.23,20.23,0,0,1-18.39,18.38A20.24,20.24,0,0,1,719.78,202.76Z"/><path class="cls-1" d="M723.27,202.76a20.23,20.23,0,0,1,18.38,18.38A20.23,20.23,0,0,1,723.27,202.76Z"/><path class="cls-1" d="M741.65,226.1a20.23,20.23,0,0,1-18.38,18.39A20.24,20.24,0,0,1,741.65,226.1Z"/><path class="cls-1" d="M719.78,244.49a20.24,20.24,0,0,1-18.39-18.39A20.24,20.24,0,0,1,719.78,244.49Z"/><path class="cls-1" d="M719.78,248a20.25,20.25,0,0,1-18.39,18.39A20.24,20.24,0,0,1,719.78,248Z"/><path class="cls-1" d="M723.27,248a20.23,20.23,0,0,1,18.38,18.39A20.25,20.25,0,0,1,723.27,248Z"/><path class="cls-1" d="M741.65,271.32a20.23,20.23,0,0,1-18.38,18.39A20.24,20.24,0,0,1,741.65,271.32Z"/><path class="cls-1" d="M719.78,289.71a20.24,20.24,0,0,1-18.39-18.39A20.24,20.24,0,0,1,719.78,289.71Z"/><path class="cls-1" d="M719.78,293.2a20.25,20.25,0,0,1-18.39,18.39A20.24,20.24,0,0,1,719.78,293.2Z"/><path class="cls-1" d="M723.27,293.2a20.23,20.23,0,0,1,18.38,18.39A20.25,20.25,0,0,1,723.27,293.2Z"/><path class="cls-1" d="M741.65,316.54a20.23,20.23,0,0,1-18.38,18.39A20.24,20.24,0,0,1,741.65,316.54Z"/><path class="cls-1" d="M719.78,334.93a20.24,20.24,0,0,1-18.39-18.39A20.24,20.24,0,0,1,719.78,334.93Z"/><path class="cls-1" d="M719.78,338.42a20.25,20.25,0,0,1-18.39,18.39A20.24,20.24,0,0,1,719.78,338.42Z"/><path class="cls-1" d="M723.27,338.42a20.23,20.23,0,0,1,18.38,18.39A20.25,20.25,0,0,1,723.27,338.42Z"/><path class="cls-1" d="M741.65,361.76a20.23,20.23,0,0,1-18.38,18.39A20.25,20.25,0,0,1,741.65,361.76Z"/><path class="cls-1" d="M719.78,380.15a20.24,20.24,0,0,1-18.39-18.39A20.25,20.25,0,0,1,719.78,380.15Z"/><path class="cls-1" d="M719.78,383.64A20.25,20.25,0,0,1,701.39,402,20.24,20.24,0,0,1,719.78,383.64Z"/><path class="cls-1" d="M723.27,383.64A20.23,20.23,0,0,1,741.65,402,20.25,20.25,0,0,1,723.27,383.64Z"/><path class="cls-1" d="M741.65,407a20.23,20.23,0,0,1-18.38,18.39A20.25,20.25,0,0,1,741.65,407Z"/><path class="cls-1" d="M719.78,425.37A20.24,20.24,0,0,1,701.39,407,20.25,20.25,0,0,1,719.78,425.37Z"/><path class="cls-1" d="M719.78,428.86a20.24,20.24,0,0,1-18.39,18.39A20.24,20.24,0,0,1,719.78,428.86Z"/><path class="cls-1" d="M723.27,428.86a20.23,20.23,0,0,1,18.38,18.39A20.25,20.25,0,0,1,723.27,428.86Z"/><path class="cls-1" d="M741.65,452.2a20.23,20.23,0,0,1-18.38,18.39A20.25,20.25,0,0,1,741.65,452.2Z"/><path class="cls-1" d="M719.78,470.59a20.24,20.24,0,0,1-18.39-18.39A20.25,20.25,0,0,1,719.78,470.59Z"/><path class="cls-1" d="M719.78,474.08a20.24,20.24,0,0,1-18.39,18.39A20.24,20.24,0,0,1,719.78,474.08Z"/><path class="cls-1" d="M723.27,474.08a20.23,20.23,0,0,1,18.38,18.39A20.24,20.24,0,0,1,723.27,474.08Z"/></g></g></svg>