<?xml version="1.0" encoding="utf-8"?><svg viewBox="0 0 171 40" xmlns="http://www.w3.org/2000/svg" class="eleven_mirror"><style>.eleven_mirror path {fill: white}</style><g fill-rule="evenodd" fill="#342B25"><path d="M7.63.185c1.847 0 1.047-.185 2.4-.123v2.584h-.676C8.984 1.17 7.754.985 6.338.985H2.831v5.6h2.4c.492 0 1.354.061 1.6-1.108h.615V8.43h-.615c-.308-1.17-.739-1.108-1.6-1.108h-2.4v5.723h4c2.03 0 3.569-.43 3.754-2.154h.677l-.185 2.893H0v-.677c.862-.123 1.17-.739 1.17-1.539V2.4C1.17 1.538.984.862 0 .8V.185h7.63z"></path><path  d="M16.554.8c-.8.123-1.17.615-1.17 1.6v10.585h4.124c1.661 0 2.584-1.293 2.83-2.462h.677v3.2H12.554v-.677c.923-.061 1.17-.738 1.17-1.6V2.4c0-.985-.309-1.477-1.17-1.6V.185h3.938V.8h.062z"></path><path d="M32.062.185c1.846 0 1.046-.185 2.4-.123v2.584h-.616c-.37-1.477-1.6-1.661-3.015-1.661h-3.57v5.6h2.4c.493 0 1.354.061 1.6-1.108h.616V8.43h-.615c-.308-1.17-.739-1.108-1.6-1.108h-2.4v5.723h4c2.03 0 3.569-.43 3.753-2.154h.677l-.184 2.893H24.43v-.677c.861-.123 1.169-.739 1.169-1.539V2.4c0-.862-.185-1.538-1.17-1.6V.185h7.632z"></path><path d="M40.185.185v.677c-.308 0-.985.061-.985.738 0 .246.246.862.308.985l4.184 8.923h.123l4.247-8.862c.061-.184.307-.615.307-.923 0-.615-.615-.861-1.107-.861V.185h3.384v.677c-.923.123-1.354.923-1.723 1.723l-5.538 11.323h-.493l-5.477-12C37.17 1.292 36.677.862 36 .8V.185h4.185z"></path><path d="M58.954.185C60.8.185 60 0 61.354.062v2.584h-.677c-.37-1.477-1.6-1.661-3.015-1.661h-3.508v5.6h2.461c.493 0 1.354.061 1.6-1.108h.616V8.43h-.616c-.307-1.17-.738-1.108-1.6-1.108h-2.461v5.723h4c2.03 0 3.57-.43 3.754-2.154h.677l-.247 2.893H51.323v-.677c.862-.123 1.17-.739 1.17-1.539V2.4c0-.862-.185-1.538-1.17-1.6V.185h7.63z"></path><path d="M63.938 13.108c.8.123 1.17-.8 1.17-1.416v-9.23c0-.185 0-1.6-1.17-1.662V.185h2.77l8.246 10.4h.061V2.338c0-.615-.061-1.415-1.169-1.538V.185h3.077v.677c-.985.184-1.17.676-1.17 1.538v11.385H75.2L65.97 2.092h-.124v9.6c0 .493.185 1.416 1.17 1.416v.677h-3.078v-.677z"></path><path d="M91.015 11.2h.062L95.63.185h3.446v.677c-.923.123-1.17.738-1.17 1.6v9.107c0 1.108.555 1.539 1.17 1.539v.677h-3.939v-.677c.554-.062 1.17-.37 1.17-1.539V.923h-.062l-5.354 12.985h-.615L85.169.923h-.061V11.57c0 1.17.615 1.477 1.169 1.539v.677H83.2v-.677c.985-.123 1.17-.862 1.17-1.539v-9.6c0-.8-.555-1.169-1.17-1.169V.185h3.508L91.015 11.2z"></path><path d="M104.985.8c-.985.062-1.17.923-1.17 1.6v9.108c0 .923.308 1.477 1.17 1.6v.677h-3.939v-.677c.862-.123 1.17-.616 1.17-1.6V2.4c0-.862-.247-1.477-1.17-1.6V.185h3.939V.8z"></path><path d="M111.692 6.646c1.108 0 3.693-.123 3.693-2.892 0-2.708-2.277-2.83-3.693-2.83h-1.969v5.722h1.97zM112 .185c2.03 0 4.062.246 4.923 1.969.246.43.37.923.37 1.477 0 2.03-1.293 3.138-2.77 3.507l2.77 4.616c.369.615.8 1.292 1.722 1.354v.677h-2.461l-3.816-6.4h-3.015v4.123c0 .8.185 1.477 1.17 1.538v.677h-3.94v-.677c.924-.123 1.17-.615 1.17-1.538V2.4c0-.862-.246-1.477-1.17-1.6V.185H112z"></path><path d="M124.985 6.646c1.107 0 3.692-.123 3.692-2.892 0-2.708-2.277-2.83-3.692-2.83h-1.97v5.722h1.97zm.307-6.461c2.031 0 4.062.246 4.923 1.969.247.43.37.923.37 1.477 0 2.03-1.293 3.138-2.77 3.507l2.77 4.616c.369.615.8 1.292 1.723 1.354v.677h-2.462l-3.877-6.4h-3.015v4.123c0 .8.184 1.477 1.17 1.538v.677h-3.94v-.677c.862-.123 1.17-.615 1.17-1.538V2.4c0-.862-.185-1.477-1.17-1.6V.185h5.108z"></path><path d="M135.138 6.954c0 4 2.277 6.215 4.924 6.215 2.646 0 4.923-2.215 4.923-6.215S142.708.738 140.062.738c-2.708 0-4.924 2.216-4.924 6.216m11.816 0c0 3.261-2.4 6.954-6.892 6.954-4.493 0-6.893-3.693-6.893-6.954 0-3.262 2.4-6.954 6.893-6.954 4.492 0 6.892 3.692 6.892 6.954"></path><path d="M153.17 6.646c1.107 0 3.692-.123 3.692-2.892 0-2.708-2.277-2.83-3.693-2.83H151.2v5.722h1.97zm.307-6.461c2.03 0 4.061.246 4.923 1.969.246.43.37.923.37 1.477 0 2.03-1.293 3.138-2.77 3.507l2.77 4.616c.368.615.8 1.292 1.722 1.354v.677h-2.461l-3.816-6.4H151.2v4.123c0 .8.185 1.477 1.17 1.538v.677h-3.94v-.677c.862-.123 1.17-.615 1.17-1.538V2.4c0-.862-.246-1.477-1.17-1.6V.185h5.047z"></path><path d="M169.046 3.692c-.492-1.354-1.538-2.954-3.323-2.954-1.477 0-2.461.924-2.461 2.216 0 1.661 1.661 2.215 2.769 2.523.554.123 1.107.246 1.969.677.677.308 2.585 1.23 2.585 3.63 0 2.278-1.847 4.124-4.062 4.124a8.138 8.138 0 0 1-2.03-.308c-.555-.185-.924-.37-1.416-.37-.677 0-.8.37-.862.493h-.615V9.538h.677c.554 1.847 2.338 3.57 4.43 3.57 1.355 0 2.524-1.17 2.524-2.646 0-1.047-.554-1.97-2.093-2.647-.861-.369-1.6-.43-2.338-.738-2.338-.862-2.77-2.523-2.77-3.57 0-2.03 1.662-3.507 3.94-3.507.86 0 1.538.185 2.4.677.122.123.368.185.553.185.185 0 .308-.124.492-.247h.493v3.077h-.862z"></path><path d="M43.692 35.63c1.908 0 5.539-.676 5.539-5.6 0-5.353-4.37-5.722-5.539-5.722h-2.277v11.384h2.277v-.061zm.431-12.06c2.523 0 4.492.738 5.785 2.645.615.862 1.169 2.154 1.169 3.877 0 .8-.123 2.646-1.6 4.37-1.23 1.353-2.892 1.969-5.354 1.969H38.77v-.616c.923-.061 1.108-.677 1.108-1.477v-8.615c0-.8-.185-1.415-1.108-1.477v-.615h5.354v-.062z"></path><path d="M55.446 29.785c-.738 0-1.477.492-1.538 1.969H56.8c.062-1.477-.615-1.97-1.354-1.97m.185 6.708c-1.17 0-3.262-.615-3.262-3.446 0-2.338 1.354-3.938 3.2-3.938 1.908 0 2.77 1.723 2.708 3.077h-4.37v.738c0 1.046.247 2.708 1.97 2.708.923 0 1.785-.616 2.277-1.108l.308.308c-.677.923-1.662 1.661-2.831 1.661"></path><path d="M64.308 30.585a.55.55 0 0 1-.554.553c-.554 0-.677-.553-.739-.738 0-.062-.123-.554-.923-.554-.738 0-1.354.37-1.354 1.108 0 .8.554.984 1.539 1.23.861.247 2.523.616 2.523 2.216 0 1.292-1.17 2.215-2.708 2.215-1.846 0-2.523-.984-2.523-1.6 0-.369.246-.738.739-.738.492 0 .677.308.677.554 0 .184-.062.369-.062.554 0 .246.308.738 1.17.738 1.045 0 1.476-.615 1.476-1.23 0-.74-.738-.985-1.169-1.17-.738-.246-1.292-.37-1.785-.738-.677-.493-.8-1.047-.8-1.539 0-1.292.985-2.154 2.339-2.154 1.354-.123 2.154.616 2.154 1.293"></path><path d="M67.077 25.17c.492 0 .861.368.861.86 0 .555-.492.924-.861.924a.946.946 0 0 1-.923-.923c0-.37.37-.862.923-.862zm.861 4.184v5.17c0 .676.062 1.291.8 1.291v.554h-2.953v-.554c.677-.061.8-.553.8-1.292V31.2c0-.738-.062-1.17-.8-1.354v-.554h2.153v.062z"></path><path d="M71.63 31.57c0 1.66.74 1.845 1.355 1.845s1.353-.184 1.353-1.846c0-1.046-.246-1.846-1.353-1.846-1.108.062-1.354.8-1.354 1.846zm-1.845 4.307l1.415-2.339a2.116 2.116 0 0 1-1.108-1.907c0-1.539 1.231-2.462 2.831-2.462.739 0 1.723.246 2.277.8.062-.246.308-.738.923-.738.554 0 .923.369.923.861 0 .431-.246.616-.554.616-.246 0-.43-.123-.43-.431l.061-.185c.062-.061.123-.123.123-.246 0-.061 0-.123-.184-.123-.185 0-.37.185-.431.43v.247c.061.246.246.492.246 1.23 0 1.662-1.477 2.4-2.83 2.4-.309 0-.74-.06-1.232-.184l-.861 1.354.061.062c.431-.124.616-.247.862-.308.43-.185 1.046-.246 1.538-.246 1.416 0 3.2.738 3.2 2.461 0 1.354-1.292 2.339-3.2 2.339-1.6 0-2.953-.677-2.953-1.785 0-.492.307-.861.8-.861.553 0 .676.369.676.615a.47.47 0 0 1-.123.308c-.061.184-.246.307-.246.492 0 .246.37.615 1.6.615 2.339 0 2.523-1.169 2.523-1.538 0-1.108-1.107-1.416-2.461-1.416-.554 0-1.785.124-3.2.616l-.246-.677z"></path><path d="M78.646 34.523v-3.692c0-.37-.123-.8-.8-.923v-.554H80v.923h.062a3.23 3.23 0 0 1 2.4-1.046c1.907.061 1.907 1.415 1.907 2.277v3.015c0 .677.062 1.292.8 1.292v.554h-2.954v-.554c.739-.061.8-.615.8-1.292v-3.077c0-.554 0-1.477-1.107-1.477-.246 0-1.17.123-1.908 1.231v3.323c0 .8.185 1.23.8 1.292v.554h-2.954v-.554c.739-.061.8-.553.8-1.292"></path><path d="M94.708 24.185c-.8.061-1.046.553-1.046 1.477v3.815h7.384v-3.815c0-.924-.246-1.416-1.046-1.477v-.616h3.754v.616c-.985.061-1.108.923-1.108 1.477v8.615c0 .923.308 1.415 1.108 1.477v.615H100v-.615c.8-.123 1.046-.554 1.046-1.477v-4.062h-7.384v4.062c0 .8.184 1.415 1.046 1.477v.615h-3.754v-.615c.861-.062 1.108-.677 1.108-1.477v-8.615c0-.8-.185-1.416-1.108-1.477v-.616h3.754v.616z"></path><path d="M106.708 32.862c0 .861-.062 3.076 1.969 3.076 1.97 0 1.908-2.215 1.908-3.076 0-2.647-.923-3.077-1.908-3.077-1.046 0-1.97.43-1.97 3.077m5.293-.985c.062.37.123.738.123 1.108 0 .307-.061.615-.123.923-.615 2.523-2.83 2.646-3.323 2.646-.492 0-2.708-.123-3.323-2.646-.062-.308-.123-.554-.123-.923 0-.37.061-.739.123-1.108.615-2.462 2.646-2.708 3.323-2.708s2.708.246 3.323 2.708"></path><path d="M113.846 29.354v-1.6l1.354-.739v2.339h1.538v.554H115.2v4.677c0 .43.062 1.046.862 1.046.369 0 .676-.123.984-.37l.308.37c-.37.43-.985.923-1.908.923-.923 0-1.6-.37-1.6-1.846v-4.739h-.8v-.554h.8v-.061z"></path><path d="M121.292 29.785c-.738 0-1.477.492-1.538 1.969h2.892c.062-1.477-.615-1.97-1.354-1.97m.185 6.708c-1.17 0-3.262-.615-3.262-3.446 0-2.338 1.354-3.938 3.2-3.938 1.97 0 2.77 1.723 2.708 3.077h-4.37v.738c0 1.046.247 2.708 1.97 2.708.923 0 1.785-.616 2.277-1.108l.308.308c-.677.923-1.662 1.661-2.831 1.661"></path><path d="M127.446 23.57v10.953c0 .677.062 1.292.8 1.292v.554h-2.954v-.554c.739-.061.8-.615.8-1.292v-9.108c0-.861-.061-1.23-.8-1.292v-.554h2.154z"></path></g></svg>