<?xml version="1.0" encoding="UTF-8"?> <svg xmlns="http://www.w3.org/2000/svg" xmlns:xlink="http://www.w3.org/1999/xlink" id="Capa_1" x="0px" y="0px" viewBox="0 0 512.003 512.003" style="enable-background:new 0 0 512.003 512.003;" xml:space="preserve" width="512px" height="512px"><g><g> <g> <path d="M426.174,398.555l-43.688-10.859c0.447-11.733-7.624-19.409-8.04-19.845l23.831-38.2c2.12-3.397,1.084-7.87-2.314-9.99 c-3.396-2.12-7.87-1.083-9.99,2.314l-23.837,38.209c-6.953-2.183-14.614-1.737-21.354,1.493l-28.96-34.462 c-2.576-3.066-7.149-3.462-10.217-0.887c-3.066,2.577-3.463,7.151-0.887,10.217l28.956,34.458 c-3.008,4.196-4.85,9.135-5.308,14.413c-0.187,2.152-0.129,4.286,0.146,6.377l-41.727,16.894c-3.712,1.503-5.503,5.73-4,9.443 c1.143,2.82,4.403,5.904,9.443,4l41.733-16.896c0.359,0.485,6.529,9.757,18.164,11.336l3.172,44.907 c0.27,3.821,3.453,6.741,7.226,6.741c0.172,0,7.908,0,7.241-7.763l-3.166-44.818c3.067-1.001,6.384-2.667,9.504-5.416 c2.787-2.456,5.095-5.312,6.827-8.466l43.747,10.874c5.583,1.348,7.966-1.988,8.786-5.288 C432.428,403.454,430.061,399.521,426.174,398.555z M367.434,389.15c-0.325,3.757-2.095,7.161-4.981,9.587 c-2.887,2.425-6.55,3.582-10.3,3.256c-3.757-0.326-7.161-2.095-9.586-4.981c-2.426-2.887-3.583-6.545-3.257-10.301 c0.326-3.757,2.095-7.161,4.981-9.586c2.641-2.22,5.862-3.303,9.069-3.303c4.027,0,8.03,1.711,10.817,5.028 C366.604,381.736,367.76,385.394,367.434,389.15z" data-original="#000000" class="active-path" data-old_color="#000000" fill="#d69928"></path> </g> </g><g> <g> <path d="M236.043,238.558c-4.005-3.839-6.467-6.604-6.878-12.638s1.653-9.109,5.102-13.456c4.699-5.923,5.118-13.875,1.067-20.258 c-4.05-6.381-11.419-9.388-18.78-7.655l-54.84,12.902l22.42-51.685c3.008-6.935,1.358-14.722-4.203-19.839 c-5.562-5.118-13.463-6.118-20.127-2.542c-4.889,2.623-8.28,4.11-14.146,2.636c-5.865-1.475-8.151-4.388-11.22-9.011 c-4.182-6.301-11.613-9.154-18.938-7.274c-7.32,1.881-12.455,7.963-13.083,15.496l-0.594,7.13 c-0.344,4.128,2.724,7.753,6.852,8.097c4.121,0.338,7.753-2.725,8.097-6.853l0.594-7.13c0.122-1.463,1.083-2.011,1.867-2.212 c0.785-0.202,1.893-0.186,2.708,1.041c4.12,6.208,9.063,12.499,20.062,15.263c10.998,2.769,18.33-0.443,24.893-3.965 c1.297-0.699,2.282-0.187,2.879,0.362c0.596,0.548,1.183,1.484,0.599,2.832l-28.366,65.392c-1.129,2.602-0.693,5.618,1.126,7.795 c1.819,2.176,4.709,3.138,7.472,2.49l69.384-16.324c1.43-0.338,2.248,0.408,2.682,1.092c0.435,0.686,0.761,1.744-0.154,2.897 c-4.63,5.836-9.087,12.481-8.316,23.797s6.086,17.294,11.464,22.448c1.063,1.02,0.883,2.113,0.545,2.851 c-0.337,0.736-1.038,1.582-2.508,1.445l-70.957-6.771c-2.818-0.28-5.558,1.076-7.065,3.479s-1.531,5.45-0.06,7.876l36.966,60.945 c0.761,1.255,0.306,2.263-0.21,2.886c-0.518,0.626-1.423,1.265-2.803,0.75c-6.98-2.599-14.678-4.786-25.202-0.556 c-10.522,4.228-14.567,11.131-17.809,17.84c-0.64,1.326-1.735,1.495-2.542,1.398c-0.804-0.093-1.83-0.505-2.148-1.938 l-15.487-69.576c-0.616-2.769-2.742-4.953-5.493-5.644c-2.752-0.693-5.657,0.228-7.509,2.377l-46.539,53.989 c-0.96,1.112-2.058,0.99-2.81,0.692c-0.754-0.299-1.641-0.964-1.579-2.435c0.315-7.444,0.014-15.439-7.259-24.139 c-7.273-8.702-15.089-10.416-22.471-11.425c-1.458-0.199-1.956-1.189-2.116-1.985c-0.16-0.794-0.085-1.896,1.18-2.643 l61.385-36.23c2.443-1.441,3.863-4.139,3.671-6.969c-0.193-2.829-1.965-5.309-4.581-6.406l-65.729-27.578 c-1.354-0.567-1.577-1.649-1.526-2.458c0.051-0.81,0.409-1.858,1.828-2.254c7.176-2.001,14.687-4.758,20.714-14.363 c6.027-9.605,5.242-17.568,3.921-24.9c-0.261-1.449,0.527-2.229,1.234-2.626c0.705-0.398,1.777-0.666,2.877,0.305l53.426,47.186 c2.126,1.878,5.129,2.395,7.762,1.338c2.632-1.058,4.442-3.51,4.677-6.337l2.346-28.169c0.344-4.128-2.724-7.753-6.852-8.097 c-4.136-0.342-7.752,2.726-8.097,6.853l-1.106,13.278l-42.227-37.294c-5.666-5.006-13.583-5.841-20.167-2.134 c-6.588,3.71-9.979,10.915-8.638,18.357c0.984,5.46,1.349,9.146-1.865,14.268s-6.691,6.396-12.036,7.887 c-7.284,2.03-12.297,8.218-12.771,15.764c-0.473,7.543,3.725,14.306,10.694,17.229l51.951,21.797l-48.518,28.636 c-6.51,3.842-9.752,11.111-8.261,18.521c1.492,7.412,7.297,12.863,14.789,13.887c5.498,0.752,9.115,1.543,12.994,6.184 c3.878,4.639,4.016,8.34,3.781,13.884c-0.32,7.555,4.015,14.234,11.044,17.017c7.029,2.78,14.757,0.881,19.692-4.847 l36.784-42.672l12.241,54.992c1.642,7.378,7.554,12.708,15.061,13.579c0.708,0.082,11.571,1.239,17.777-9.773 c2.724-4.834,4.285-8.192,9.896-10.447c5.611-2.257,9.173-1.242,14.373,0.694c7.088,2.641,14.779,0.579,19.598-5.246 c4.817-5.824,5.396-13.764,1.476-20.226l-29.218-48.17l56.084,5.352c7.527,0.715,14.423-3.257,17.571-10.127 C242.994,251.614,241.503,243.792,236.043,238.558z" data-original="#000000" class="active-path" data-old_color="#000000" fill="#d69928"></path> </g> </g><g> <g> <path d="M512.003,97.529c-0.04-7.56-4.689-14.025-11.846-16.47c-5.25-1.794-8.648-3.266-11.563-8.564 c-2.915-5.3-2.338-8.958-1.042-14.353c1.766-7.353-1.205-14.741-7.569-18.822c-6.361-4.079-14.313-3.698-20.256,0.972 l-44.299,34.81l-1.445-56.32c-0.194-7.556-4.973-13.923-12.172-16.22c-7.201-2.299-14.787,0.126-19.323,6.175 c-3.329,4.439-5.779,7.217-11.719,8.352c-5.94,1.139-9.24-0.543-13.973-3.443c-6.446-3.951-14.392-3.409-20.24,1.383 c-5.846,4.79-7.939,12.47-5.334,19.565l19.416,52.887l-54.01-16.029c-7.242-2.15-14.777,0.425-19.187,6.563 c-4.412,6.14-4.451,14.103-0.1,20.288c3.193,4.538,5.078,7.726,4.321,13.725c-0.756,6.001-3.373,8.621-7.593,12.225 c-5.75,4.91-7.688,12.635-4.938,19.677c2.748,7.04,9.407,11.41,16.958,11.12l56.299-2.124l-8.072,11.732 c-2.348,3.412-1.485,8.082,1.928,10.43c3.412,2.348,8.083,1.486,10.43-1.928l16.541-24.041c1.607-2.337,1.76-5.381,0.393-7.866 s-4.007-3.969-6.854-3.88l-71.229,2.687c-1.453,0.063-2.127-0.831-2.421-1.585c-0.296-0.757-0.412-1.859,0.707-2.814 c5.665-4.838,11.315-10.502,12.734-21.755c1.418-11.251-2.649-18.142-6.937-24.233c-0.848-1.205-0.461-2.244,0.013-2.903 c0.473-0.656,1.332-1.351,2.738-0.935l68.334,20.279c2.72,0.804,5.661,0.011,7.603-2.058c1.942-2.069,2.55-5.055,1.571-7.718 l-24.565-66.915c-0.506-1.379,0.135-2.279,0.761-2.792c0.629-0.515,1.643-0.966,2.896-0.197 c6.353,3.893,13.491,7.513,24.625,5.389c11.14-2.129,16.435-8.126,20.904-14.086c0.885-1.178,1.989-1.13,2.764-0.885 c0.771,0.246,1.699,0.848,1.737,2.315l1.828,71.256c0.072,2.836,1.738,5.388,4.306,6.595c2.565,1.207,5.595,0.862,7.825-0.89 l56.047-44.041c1.156-0.907,2.209-0.577,2.891-0.141c0.684,0.438,1.426,1.261,1.081,2.692c-1.739,7.244-2.981,15.147,2.485,25.085 c5.466,9.938,12.807,13.121,19.856,15.529c1.394,0.477,1.691,1.544,1.695,2.355c0.004,0.81-0.281,1.877-1.666,2.366 l-67.203,23.759c-2.674,0.945-4.586,3.319-4.941,6.133c-0.354,2.814,0.909,5.589,3.265,7.168l59.205,39.693 c1.22,0.817,1.231,1.923,1.026,2.707c-0.206,0.784-0.759,1.744-2.227,1.86c-7.428,0.584-15.329,1.847-23.09,10.115 c-7.762,8.271-8.521,16.234-8.632,23.683c-0.022,1.472-0.945,2.085-1.716,2.34c-0.771,0.255-1.873,0.313-2.767-0.853 l-43.363-56.572c-1.726-2.252-4.58-3.333-7.359-2.805c-2.786,0.533-5.034,2.591-5.808,5.32l-19.455,68.573 c-0.401,1.412-1.448,1.765-2.257,1.813c-0.809,0.037-1.895-0.183-2.458-1.542c-2.85-6.884-6.49-14.008-16.754-18.834 c-10.264-4.826-18.071-3.088-25.192-0.893c-1.405,0.436-2.275-0.255-2.756-0.909c-0.479-0.652-0.876-1.684-0.044-2.894 l6.769-9.838c2.348-3.412,1.484-8.082-1.928-10.43c-3.412-2.348-8.082-1.485-10.43,1.928l-6.769,9.838 c-4.284,6.228-4.161,14.187,0.313,20.276c4.477,6.094,12.04,8.592,19.264,6.362c5.305-1.635,8.919-2.441,14.39,0.133 c5.474,2.573,7.156,5.871,9.279,10.998c2.756,6.654,9.008,10.81,16.118,10.809c0.354,0,13.084,1.113,16.885-12.724l15.377-54.199 l34.274,44.714c4.598,5.998,12.205,8.343,19.381,5.969c7.178-2.374,11.89-8.794,12.004-16.355 c0.083-5.547,0.433-9.233,4.571-13.643c4.138-4.41,7.796-4.992,13.328-5.428c7.538-0.592,13.646-5.701,15.562-13.014 c1.914-7.312-0.905-14.756-7.184-18.966l-46.795-31.373l53.116-18.778C507.464,111.597,512.043,105.087,512.003,97.529z" data-original="#000000" class="active-path" data-old_color="#000000" fill="#d69928"></path> </g> </g><g> <g> <path d="M477.07,384.449c-1.903-7.315-7.998-12.435-15.533-13.044l-56.156-4.531l37.186-42.322 c4.99-5.678,5.807-13.597,2.082-20.173c-3.727-6.578-10.944-9.949-18.379-8.59c-5.459,0.996-9.144,1.372-14.273-1.828 c-5.131-3.2-6.414-6.675-7.917-12.016c-2.049-7.279-8.249-12.275-15.797-12.73c-7.56-0.458-14.297,3.761-17.203,10.738 l-21.662,52.007l-28.76-48.443c-3.859-6.5-11.136-9.724-18.542-8.214c-7.408,1.511-12.844,7.33-13.85,14.825 c-0.737,5.499-1.52,9.119-6.148,13.009c-4.63,3.891-8.325,4.036-13.875,3.817c-7.521-0.29-14.224,4.052-16.988,11.089 c-2.763,7.035-0.841,14.76,4.897,19.68l42.767,36.673l-54.959,12.383c-7.374,1.661-12.689,7.586-13.542,15.096 c-0.852,7.512,3.002,14.48,9.819,17.753c5.002,2.4,8.204,4.263,10.473,9.868c2.27,5.605,1.266,9.17-0.657,14.375 c-2.621,7.094-0.542,14.78,5.296,19.584c5.835,4.801,13.775,5.36,20.23,1.424l48.094-29.341l-5.207,56.096 c-0.699,7.527,3.294,14.413,10.173,17.544c2.382,1.084,12.446,3.07,19.918-3.854c4.07-3.771,6.59-6.484,12.623-6.91 c6.022-0.424,9.11,1.629,13.468,5.067c5.937,4.686,13.89,5.082,20.262,1.014c6.369-4.066,9.354-11.445,7.604-18.799l-13.089-55 c3.406,0.695,6.947-1.067,8.377-4.386c1.638-3.805-0.117-8.217-3.922-9.855l-12.198-5.254c-2.604-1.12-5.62-0.679-7.792,1.146 c-2.172,1.825-3.128,4.719-2.471,7.479l16.503,69.343c0.34,1.429-0.402,2.248-1.085,2.684c-0.685,0.437-1.743,0.765-2.898-0.146 c-5.849-4.615-12.506-9.055-23.816-8.255c-11.313,0.799-17.279,6.13-22.421,11.521c-1.017,1.066-2.109,0.891-2.849,0.553 c-0.737-0.336-1.587-1.042-1.451-2.505l6.588-70.974c0.263-2.824-1.092-5.556-3.498-7.057c-2.406-1.502-5.454-1.519-7.876-0.039 l-60.848,37.123c-1.257,0.763-2.263,0.312-2.889-0.203c-0.626-0.516-1.267-1.42-0.756-2.802 c2.582-6.988,4.746-14.691,0.491-25.202c-4.257-10.512-11.17-14.539-17.886-17.763c-1.328-0.637-1.498-1.732-1.406-2.539 c0.091-0.804,0.501-1.83,1.934-2.153l69.536-15.666c2.768-0.623,4.946-2.755,5.63-5.507c0.685-2.753-0.243-5.656-2.396-7.503 l-54.109-46.399c-1.114-0.956-0.995-2.055-0.699-2.809c0.297-0.755,0.956-1.642,2.43-1.585c7.444,0.292,15.438-0.025,24.122-7.321 c8.682-7.296,10.375-15.115,11.365-22.499c0.195-1.46,1.185-1.96,1.98-2.122c0.794-0.158,1.896-0.089,2.646,1.174l36.388,61.292 c1.448,2.438,4.148,3.849,6.978,3.652c2.83-0.2,5.305-1.979,6.396-4.598l27.407-65.8c0.564-1.355,1.655-1.585,2.454-1.533 c0.811,0.049,1.86,0.404,2.259,1.822c2.02,7.172,4.795,14.676,14.417,20.678c9.622,6.002,17.582,5.195,24.911,3.857 c1.444-0.266,2.229,0.521,2.629,1.228c0.399,0.704,0.671,1.775-0.298,2.879l-47.048,53.546c-1.873,2.131-2.383,5.136-1.318,7.765 s3.521,4.434,6.349,4.661l71.049,5.733c1.464,0.118,2.014,1.077,2.217,1.861c0.204,0.785,0.19,1.894-1.035,2.711 c-6.196,4.136-12.475,9.095-15.21,20.101c-2.736,11.006,0.49,18.328,4.029,24.883c0.699,1.296,0.192,2.282-0.355,2.881 c-0.547,0.597-1.479,1.188-2.83,0.605l-26.408-11.375c-3.803-1.637-8.216,0.119-9.854,3.922c-1.639,3.804,0.116,8.217,3.921,9.854 l26.407,11.375c6.94,2.99,14.726,1.321,19.828-4.253c5.105-5.576,6.084-13.48,2.491-20.136c-2.636-4.882-4.131-8.27-2.672-14.139 c1.459-5.868,4.366-8.162,8.981-11.242C476.133,399.207,478.969,391.766,477.07,384.449z" data-original="#000000" class="active-path" data-old_color="#000000" fill="#d69928"></path> </g> </g><g> <g> <path d="M198.944,227.975c-0.272-3.996-3.737-7.022-7.727-6.742l-44.913,3.057c-0.667-2.001-1.549-3.946-2.658-5.8 c-2.72-4.545-6.537-8.182-11.077-10.639l10.969-43.652c0.979-3.883-1.379-7.822-5.263-8.799c-3.887-0.975-7.825,1.382-8.8,5.266 l-10.971,43.658c-7.474,0.042-14.559,2.992-19.857,7.997l-38.148-23.936c-3.392-2.127-7.868-1.104-9.997,2.288 c-2.128,3.393-1.104,7.868,2.289,9.997l38.138,23.93c-0.183,0.574-4.084,11.007,1.45,21.362L57.84,274.835 c-3.073,2.568-3.481,7.142-0.913,10.214c1.434,1.716,5.208,4.371,10.214,0.913l34.413-28.767c2.95,2.188,6.319,3.766,10.013,4.482 c3.856,0.747,7.501,0.782,10.781,0.381l16.888,42.022c2.688,6.418,8.546,4.381,9.433,4.024c3.716-1.493,5.518-5.717,4.024-9.433 l-16.787-41.772c9.772-6.509,11.265-17.546,11.376-18.14l44.919-3.057C196.197,235.431,199.216,231.971,198.944,227.975z M132.353,236.882c-0.919,3.656-3.207,6.736-6.442,8.672c-3.235,1.937-7.031,2.495-10.688,1.577 c-3.656-0.919-6.736-3.207-8.672-6.442c-1.936-3.235-2.496-7.03-1.577-10.687c1.608-6.398,7.374-10.677,13.69-10.677 c1.135,0,8.468-0.004,12.111,6.869C132.542,229.525,133.272,233.225,132.353,236.882z" data-original="#000000" class="active-path" data-old_color="#000000" fill="#d69928"></path> </g> </g><g> <g> <path d="M462.055,87.091c-1.93-3.509-6.339-4.787-9.849-2.858l-39.458,21.706c-5.001-5.3-11.904-8.652-19.366-9.123L384.935,52.6 c-0.752-3.935-4.558-6.507-8.483-5.763c-3.934,0.752-6.514,4.55-5.763,8.483l8.446,44.21c-4.674,2.193-8.693,5.604-11.669,9.986 c-1.214,1.787-2.205,3.678-2.986,5.638l-44.663-5.63c-3.991-0.507-7.602,2.314-8.102,6.287c-0.501,3.974,2.314,7.601,6.287,8.102 l44.671,5.631c0.077,0.598,0.934,11.703,10.323,18.748l-19.163,40.753c-1.704,3.627-0.147,7.947,3.477,9.651 c0.998,0.469,6.701,2.796,9.648-3.477l19.159-40.744c1.769,0.339,3.583,0.52,5.425,0.52c6.404-0.159,11.703-1.712,15.949-4.213 l32.483,30.487c4.487,4.02,8.823,1.196,10.25-0.324c2.741-2.921,2.596-7.51-0.324-10.25l-32.454-30.46 c5.747-10.37,2.451-21.01,2.302-21.594l39.449-21.701C462.706,95.009,463.986,90.6,462.055,87.091z M394.2,139.741 c-7.639,1.466-15.053-3.57-16.513-11.216c-0.707-3.702,0.149-7.406,2.188-10.578c3.743-5.823,10.816-6.188,11.706-6.188 c2.799,0,5.534,0.835,7.9,2.442c3.119,2.118,5.227,5.324,5.934,9.027C406.876,130.873,401.845,138.281,394.2,139.741z" data-original="#000000" class="active-path" data-old_color="#000000" fill="#d69928"></path> </g> </g></g> </svg> 