<?xml version="1.0" encoding="UTF-8"?> <svg xmlns="http://www.w3.org/2000/svg" id="Слой_1" data-name="Слой 1" viewBox="0 0 979.12477 244.71514"> <defs> <style>.cls-1{fill:#d69928;}</style> </defs> <path class="cls-1" d="M478.48416,441.58194c0-10.15556-3.24976-17.19673-11.91572-19.76928,8.12448-2.57291,11.78052-9.0726,11.78052-19.49871v-7.04153c0-14.08216-6.22895-21.6648-21.12368-21.6648H436.102v94.78459h10.56167V427.22886h7.44745c8.80133,0,13.81142,3.38513,13.81142,14.08234v15.5714c0,6.36414.54166,8.80133,1.76034,11.50961H480.38c-1.76034-3.24994-1.89588-7.17654-1.89588-11.37424Zm-23.967-23.96715h-7.85356V383.22152h10.29092c7.85339,0,10.96795,4.46826,10.96795,12.999v8.39522C467.92249,414.90686,462.9124,417.61479,454.51718,417.61479Z" transform="translate(-105.43762 -298.64243)"></path> <path class="cls-1" d="M512.30224,372.65985c-14.48845,0-21.665,9.343-21.665,23.83143v49.01726c0,14.35308,7.17654,23.83178,21.665,23.83178,14.624,0,21.80052-9.4787,21.80052-23.83178V396.49128C534.10276,382.00284,526.92623,372.65985,512.30224,372.65985ZM523.5411,446.0502c0,8.66613-3.52067,13.67587-11.23886,13.67587-7.58265,0-11.23852-5.00974-11.23852-13.67587V395.94963c0-8.53059,3.65587-13.67605,11.23852-13.67605,7.71819,0,11.23886,5.14546,11.23886,13.67605Z" transform="translate(-105.43762 -298.64243)"></path> <polygon class="cls-1" points="471.776 150.658 456.205 74.965 441.445 74.965 441.445 169.75 450.653 169.75 450.653 94.193 466.36 169.614 476.516 169.614 491.546 93.516 491.546 169.75 501.566 169.75 501.566 74.965 486.807 74.965 471.776 150.658"></polygon> <path class="cls-1" d="M707.01529,417.88553c8.25984-2.57274,11.10349-8.80133,11.10349-18.82152v-4.46843c0-13.94679-5.82249-20.988-20.58185-20.988H676.27806v94.78459h21.80071c14.75918,0,21.6648-7.98894,21.6648-22.20664v-7.98911C719.74357,427.77016,716.22308,420.45826,707.01529,417.88553Zm-20.17539-34.664H697.266c7.58282,0,10.42647,4.06232,10.42647,12.45737v5.55139c0,9.885-4.33307,12.59309-12.72829,12.59309h-8.1243Zm22.47738,62.69331c0,8.8015-3.52067,12.86348-11.23851,12.86348H686.8399v-35.341h9.20761c9.07207,0,13.26977,3.52068,13.26977,14.08216Z" transform="translate(-105.43762 -298.64243)"></path> <path class="cls-1" d="M773.73721,442.25879c0-10.15556-3.24957-17.87358-11.91553-20.44613,8.1243-2.57291,11.78017-9.0726,11.78017-19.49871v-7.04153c0-14.08216-6.2286-21.6648-21.12333-21.6648H731.355v94.78459h10.56167V427.22886H749.364c8.80151,0,13.8116,4.062,13.8116,14.75919V456.8826c0,6.36414.54148,8.80133,1.76016,11.50961h10.69721c-1.76016-3.24994-1.89571-7.17654-1.89571-11.37424Zm-23.96679-24.644h-7.85374V383.22152H752.2076c7.85356,0,10.968,4.46826,10.968,12.999v8.39522C763.17555,414.90686,758.16546,417.61479,749.77042,417.61479Z" transform="translate(-105.43762 -298.64243)"></path> <polygon class="cls-1" points="772.914 143.481 750.979 74.965 737.574 74.965 737.574 169.75 747.052 169.75 747.052 93.11 771.29 169.75 782.258 169.75 782.258 74.965 772.914 74.965 772.914 143.481"></polygon> <path class="cls-1" d="M924.52923,373.60762h-22.207v94.78459h22.207c14.76006,0,21.53014-8.93688,21.53014-23.42532V397.16831C946.05937,382.54449,939.28929,373.60762,924.52923,373.60762Zm11.10332,71.76555c0,8.666-3.65534,13.40514-11.23816,13.40514H912.88425V383.22152h11.37406c7.7189,0,11.37424,4.73917,11.37424,13.40513Z" transform="translate(-105.43762 -298.64243)"></path> <rect class="cls-1" x="852.81827" y="74.96519" width="10.56166" height="94.78459"></rect> <polygon class="cls-1" points="913.314 143.481 891.378 74.965 877.973 74.965 877.973 169.75 887.451 169.75 887.451 93.11 911.689 169.75 922.657 169.75 922.657 74.965 913.314 74.965 913.314 143.481"></polygon> <path class="cls-1" d="M1084.56238,404.61558v-8.1243c0-14.35325-6.77042-23.83143-21.39442-23.83143-14.48756,0-21.258,9.47818-21.258,23.83143v49.01726c0,14.35308,6.77043,23.83178,21.258,23.83178,14.624,0,21.39442-9.4787,21.39442-23.83178V417.61479h-25.185v9.47835h15.16477V446.0502c0,8.53059-3.38442,13.67587-11.10332,13.67587-7.58282,0-11.10332-5.14528-11.10332-13.67587V395.94963c0-8.53059,3.5205-13.67605,11.10332-13.67605,7.7189,0,11.10332,5.14546,11.10332,13.67605v8.666Z" transform="translate(-105.43762 -298.64243)"></path> <path class="cls-1" d="M800.34187,373.60762l-18.14449,94.78459h9.7491l7.69295-41.29907h15.69071l7.89539,41.29907h10.562l-18.14484-94.78459Zm1.06319,44.00717,5.9778-32.09146,6.13523,32.09146Z" transform="translate(-105.43762 -298.64243)"></path> <path class="cls-1" d="M634.37239,373.60762l-18.14431,94.78459h9.74909l7.69313-41.29907h15.69054l7.89539,41.29907h10.56219l-18.14484-94.78459Zm1.06319,44.00717,5.97815-32.09146,6.13506,32.09146Z" transform="translate(-105.43762 -298.64243)"></path> <path class="cls-1" d="M392.8237,373.60762l-18.14449,94.78459h9.74909l7.69314-41.29907H407.812l7.89557,41.29907h10.562l-18.14484-94.78459Zm1.06319,44.00717,5.9778-32.09146,6.13541,32.09146Z" transform="translate(-105.43762 -298.64243)"></path> <path class="cls-1" d="M178.99245,474.48985c-.02435.64472-.0706,1.2838-.0706,1.934a51.27827,51.27827,0,0,0,.50195,7.10171A63.62445,63.62445,0,0,0,227.797,444.3857a63.41271,63.41271,0,1,0,69.20535-85.963c.10537,1.52454.17508,3.05932.17508,4.61016,0,1.51519-.06865,3.01414-.16943,4.50374a54.44457,54.44457,0,1,1-64.51048,58.15516,54.55627,54.55627,0,0,1,48.78129,44.076c.96559.05436,1.93207.10625,2.91125.10625a51.35205,51.35205,0,0,0,6.15482-.37046,63.62313,63.62313,0,0,0-39.16333-48.50526,63.4129,63.4129,0,1,0-85.95767-69.23977c1.52313-.10519,3.05544-.17473,4.60486-.17473,1.51713,0,3.01767.06884,4.50921.16961a54.445,54.445,0,1,1,58.15,64.54419A54.55574,54.55574,0,0,1,276.45,367.538c.13078-1.48642.21867-2.98484.21867-4.50515,0-1.554-.0773-3.08985-.21373-4.60945a63.619,63.619,0,0,0-48.66039,39.19,63.4142,63.4142,0,1,0-68.97839,86.0055,66.76918,66.76918,0,0,1-.40311-7.19507c0-.66467.03442-1.32069.05419-1.981A54.44587,54.44587,0,1,1,223.094,416.30768a54.55655,54.55655,0,0,1-48.76734-43.99746c-1.48431-.13007-2.98043-.21779-4.49792-.21779-1.55648,0-3.09461.07766-4.61616.21479a63.61875,63.61875,0,0,0,39.19581,48.69357,63.41392,63.41392,0,1,0,85.99014,69.06593c-2.04678.191-4.11227.31592-6.20847.31592-.98889,0-1.9686-.03741-2.9469-.08066a54.4459,54.4459,0,1,1-58.13927-64.60084A54.55617,54.55617,0,0,1,178.99245,474.48985Z" transform="translate(-105.43762 -298.64243)"></path> </svg> 